<?xml version="1.0" encoding="UTF-8" standalone="no"?>
<svg
   xmlns:dc="http://purl.org/dc/elements/1.1/"
   xmlns:cc="http://creativecommons.org/ns#"
   xmlns:rdf="http://www.w3.org/1999/02/22-rdf-syntax-ns#"
   xmlns:svg="http://www.w3.org/2000/svg"
   xmlns="http://www.w3.org/2000/svg"
   xmlns:sodipodi="http://sodipodi.sourceforge.net/DTD/sodipodi-0.dtd"
   xmlns:inkscape="http://www.inkscape.org/namespaces/inkscape"
   width="28.574999mm"
   height="28.574999mm"
   viewBox="0 0 28.574999 28.574999"
   version="1.1"
   id="svg8"
   inkscape:version="1.0.2-2 (e86c870879, 2021-01-15)"
   sodipodi:docname="icons.svg">
  <defs
     id="defs2" />
  <sodipodi:namedview
     id="base"
     pagecolor="#ffffff"
     bordercolor="#666666"
     borderopacity="1.0"
     inkscape:pageopacity="0.0"
     inkscape:pageshadow="2"
     inkscape:zoom="5.6"
     inkscape:cx="49.591387"
     inkscape:cy="35.621739"
     inkscape:document-units="mm"
     inkscape:current-layer="g936"
     inkscape:document-rotation="0"
     showgrid="false"
     inkscape:window-width="1920"
     inkscape:window-height="1057"
     inkscape:window-x="1672"
     inkscape:window-y="-8"
     inkscape:window-maximized="1" />
  <metadata
     id="metadata5">
    <rdf:RDF>
      <cc:Work
         rdf:about="">
        <dc:format>image/svg+xml</dc:format>
        <dc:type
           rdf:resource="http://purl.org/dc/dcmitype/StillImage" />
        <dc:title />
      </cc:Work>
    </rdf:RDF>
  </metadata>
  <g
     inkscape:label="Layer 1"
     inkscape:groupmode="layer"
     id="layer1"
     transform="translate(-13.52544,-45.291531)"
     style="display:inline">
    <rect
       style="fill:#0b0201;fill-opacity:1;stroke-width:1.54582"
       id="rect855"
       width="28.715712"
       height="28.523365"
       x="13.500137"
       y="45.338779" />
    <g
       id="g881"
       style="stroke:#000000;stroke-width:0.6;stroke-miterlimit:4;stroke-dasharray:none;stroke-opacity:1">
      <g
         id="g886">
        <g
           id="g905" />
      </g>
    </g>
    <g
       aria-label="2"
       transform="scale(1.0514212,0.95109366)"
       id="text1126"
       style="font-style:normal;font-weight:normal;font-size:18.633px;line-height:1.25;font-family:sans-serif;fill:#000000;fill-opacity:1;stroke:none;stroke-width:0.465825" />
  </g>
  <g
     inkscape:groupmode="layer"
     id="layer13"
     inkscape:label="[export] prawn"
     style="display:none">
    <path
       id="path1508"
       style="display:inline;fill:#ffffff;fill-opacity:1;stroke-width:0.458999"
       d="m 14.235654,4.8533463 c -2.133499,0.00821 -3.858313,1.6135898 -3.858163,3.590996 1.76e-4,1.9829877 1.734643,3.5904407 3.874182,3.5904787 2.139741,2.27e-4 3.874523,-1.607304 3.874699,-3.5904787 1.32e-4,-1.9833769 -1.73474,-3.591223 -3.874699,-3.590996 -0.0053,-1.02e-5 -0.01068,-1.02e-5 -0.01602,0 z m -3.24373,7.8077927 c 0.110442,1.110972 2.221842,1.628443 3.262333,1.599919 1.040491,-0.02852 2.953895,-0.200466 3.262853,-1.599918 0.06055,-0.274266 -0.194319,-0.808801 -0.364835,-0.99937 -0.996874,0.596526 -1.71182,0.910027 -2.898015,0.910022 -1.211204,-5e-6 -1.900636,-0.313503 -2.897497,-0.910022 -0.167605,0.206483 -0.391642,0.729752 -0.364839,0.999369 z m 1.20133,3.165352 c 0.003,0.53724 -0.04284,1.242957 -0.341434,1.5186 -0.24901,0.229866 -0.606758,0.528795 -0.925008,0.915706 -0.162447,0.197493 -0.571107,0.866525 -0.566891,1.183908 0.0239,1.798577 1.795961,2.127004 3.878317,2.127001 2.082328,-2e-6 3.854414,-0.328442 3.878316,-2.127001 0.0042,-0.317383 -0.404444,-0.986415 -0.566891,-1.183908 -0.31825,-0.386911 -0.675998,-0.68584 -0.925008,-0.915706 -0.2986,-0.275643 -0.279468,-0.98136 -0.276469,-1.5186 0.0017,-0.302474 0.130671,-1.437434 -0.178726,-1.341599 -0.397673,0.123177 -1.154575,0.256768 -1.931222,0.246096 -0.776647,-0.01067 -1.414859,-0.162958 -1.795387,-0.26972 -0.359295,-0.100806 -0.253119,1.01214 -0.249597,1.365223 z m -2.113936,4.699801 c -0.5614085,0.179912 -0.9752995,1.360171 -0.6655925,1.901693 0.9226985,1.613338 3.4068055,1.849262 4.8394985,1.85105 1.707583,0.0021 4.414921,-0.633291 4.839498,-1.85105 0.205376,-0.589055 -0.104185,-1.721781 -0.665593,-1.901693 -0.256062,1.327305 -2.635634,1.65623 -4.173905,1.65623 -1.538272,0 -3.917843,-0.328925 -4.173906,-1.65623 z"
       sodipodi:nodetypes="ccccccszscscscsscscsscszscscscscs" />
  </g>
  <g
     inkscape:groupmode="layer"
     id="layer12"
     inkscape:label="[export] wild"
     style="display:none">
    <g
       aria-label="?"
       id="text1467"
       style="font-style:normal;font-weight:normal;font-size:20.7082px;line-height:1.25;font-family:sans-serif;display:inline;fill:#ffffff;fill-opacity:1;stroke:none;stroke-width:0.517707">
      <path
         d="m 12.370303,16.943075 q 0.05056,-0.84936 0.091,-1.213371 0.04045,-0.364011 0.111226,-0.626908 0.07078,-0.273009 0.171894,-0.475237 0.111226,-0.21234 0.303343,-0.465126 0.202228,-0.262897 0.505571,-0.586463 0.303343,-0.323565 0.839248,-0.869582 l 0.333677,-0.343789 q 0.171895,-0.161783 0.303343,-0.333677 0.14156,-0.171894 0.21234,-0.293231 0.07078,-0.131449 0.101114,-0.232563 0.03034,-0.111226 0.03034,-0.222451 0,-0.515683 -0.556129,-0.77858 -0.55613,-0.262897 -1.577384,-0.262897 -1.425711,0 -3.2963251,0.606685 L 10.257015,9.2685028 q 0.05056,-0.2730085 0.121337,-0.6673541 0.07078,-0.404457 0.161783,-1.0414769 2.224514,-0.3235656 4.074905,-0.3235656 1.223482,0 2.214402,0.1921171 1.001031,0.1820057 1.739165,0.6370198 0.748246,0.4550142 1.142591,1.0819226 0.394346,0.6269084 0.394346,1.3448193 0,0.303343 -0.06067,0.616797 -0.06067,0.313455 -0.171894,0.596575 -0.111225,0.283119 -0.333677,0.637019 -0.21234,0.343789 -0.505571,0.697689 -0.293231,0.3539 -0.485349,0.546017 -0.182005,0.182005 -0.707799,0.677465 -0.515683,0.49546 -0.788692,0.77858 -0.273008,0.28312 -0.444902,0.535906 -0.171895,0.252785 -0.273009,0.546017 -0.091,0.28312 -0.171894,0.829137 -1.021254,-0.03034 -1.84028,-0.03034 -0.798802,0 -1.951505,0.02022 z m -0.465125,4.358025 0.101114,-1.213371 0.131448,-1.638051 q 0.01011,-0.111226 0.03033,-0.546017 1.284151,0.02022 2.103176,0.02022 0.879694,0 2.062731,-0.02022 -0.101114,1.152702 -0.131448,1.961616 -0.03034,0.808914 -0.07078,1.435823 -1.365043,-0.02022 -2.042508,-0.02022 -0.717912,0 -2.184068,0.02022 z"
         style="font-style:normal;font-variant:normal;font-weight:normal;font-stretch:normal;font-family:'Eras Bold ITC';-inkscape-font-specification:'Eras Bold ITC';fill:#ffffff;fill-opacity:1;stroke-width:0.517707"
         id="path892" />
    </g>
  </g>
  <g
     inkscape:groupmode="layer"
     id="layer11"
     inkscape:label="[export] action"
     style="display:none">
    <path
       id="path1168"
       style="display:inline;fill:#ffffff;fill-opacity:1;stroke:none;stroke-width:0.264583px;stroke-linecap:butt;stroke-linejoin:miter;stroke-opacity:1"
       d="m 18.127043,5.0847191 -3.20704,5.0115809 -1.536857,-2.87321 -1.26969,3.608049 -6.8150875,-3.2075566 3.7413736,5.6797566 -5.5453981,0.06666 4.7438966,3.608048 -1.6035197,3.942395 4.0757201,-0.534334 3.541386,3.741374 2.672705,-3.741374 4.543392,0.267167 -1.536857,-4.476726 5.144905,-3.007052 -6.614583,-1.804024 z M 16.205196,11.69982 c -0.662054,1.837013 -1.364184,5.118033 -1.364184,5.118033 l -2.110539,-0.09043 0.676444,-4.800224 c 0,0 1.873744,-0.196416 2.798279,-0.227376 z m -3.603914,6.213574 2.310453,0.0987 -0.392741,1.772501 h -2.071191 z"
       sodipodi:nodetypes="cccccccccccccccccccccscccccc" />
  </g>
  <g
     inkscape:groupmode="layer"
     id="layer10"
     inkscape:label="[export] two"
     style="display:none">
    <path
       id="path1122"
       style="display:inline;fill:#ffffff;fill-opacity:1;stroke:none;stroke-width:0.465;stroke-miterlimit:4;stroke-dasharray:none;stroke-opacity:1"
       d="m 14.434446,6.780111 a 8.7406987,8.7406987 0 0 0 -8.6940431,8.740552 8.7406987,8.7406987 0 0 0 8.7405511,8.740551 8.7406987,8.7406987 0 0 0 8.741069,-8.740551 8.7406987,8.7406987 0 0 0 -8.741069,-8.740552 8.7406987,8.7406987 0 0 0 -0.04651,0 z m 0.156579,1.8929077 c 1.383879,0 2.66192,0.6348304 3.370337,1.3957803 0.841718,0.904135 1.0905,1.821041 1.056266,2.494422 -0.0656,1.290285 -0.412595,2.103886 -1.238684,2.875793 -1.193838,1.115535 -2.360504,1.657472 -3.565673,2.854606 -0.223207,0.230751 -0.404886,0.455681 -0.545187,0.674894 h 5.337659 v 2.25826 H 9.5835789 c 0.10204,-0.853781 0.265994,-1.731907 0.7761801,-2.493388 0.510185,-0.767249 2.409136,-2.338338 3.164665,-2.975012 1.211691,-1.021076 1.986907,-1.650629 2.306836,-1.974556 0.459311,-0.465053 0.761459,-1.666863 -0.129708,-2.331641 -0.891167,-0.664777 -1.770905,-0.433903 -2.584855,0.283704 -0.604563,0.533003 -0.582723,1.609771 -0.609782,2.263428 l -2.5367961,-0.02997 c 0.03086,-2.126336 0.5352371,-3.108704 1.2324831,-3.84421 0.704337,-0.7429846 2.125713,-1.4521073 3.388423,-1.4521073 z" />
  </g>
  <g
     inkscape:groupmode="layer"
     id="layer9"
     inkscape:label="[export] zapx2"
     style="display:none">
    <path
       style="display:inline;fill:#ffffff;fill-opacity:0.967742;stroke:none;stroke-width:0.165589px;stroke-linecap:butt;stroke-linejoin:miter;stroke-opacity:1"
       d="m 9.7958464,4.8485994 -4.190852,5.4209586 2.484735,-0.5142796 -2.576593,3.3382416 2.202348,-0.385325 -2.267035,4.968529 7.5268056,-5.922431 -1.940385,0.35313 3.259312,-3.7678426 -3.275953,0.495747 3.84954,-4.542186 z"
       id="path1012-9"
       sodipodi:nodetypes="cccccccccccc" />
    <path
       style="display:inline;fill:#ffffff;fill-opacity:0.967742;stroke:none;stroke-width:0.165589px;stroke-linecap:butt;stroke-linejoin:miter;stroke-opacity:1"
       d="m 19.150756,13.022335 -4.190851,5.420959 2.484734,-0.51428 -2.576592,3.338241 2.202348,-0.385325 -2.267035,4.968529 7.526806,-5.922431 -1.940386,0.35313 3.259313,-3.767842 -3.275954,0.495747 3.849541,-4.542186 z"
       id="path1081"
       sodipodi:nodetypes="cccccccccccc" />
  </g>
  <g
     inkscape:groupmode="layer"
     id="layer8"
     inkscape:label="[export] zap"
     style="display:none">
    <path
       style="display:inline;fill:#ffffff;fill-opacity:0.967742;stroke:none;stroke-width:0.264583px;stroke-linecap:butt;stroke-linejoin:miter;stroke-opacity:1"
       d="m 14.256729,4.5582933 -6.696257,8.6617587 3.970177,-0.821732 -4.11695,5.333934 3.518972,-0.615684 -3.622329,7.938853 12.026535,-9.463024 -3.100402,0.564241 5.207822,-6.02036 -5.23441,0.792117 6.150901,-7.2576297 z"
       id="path1012"
       sodipodi:nodetypes="cccccccccccc" />
  </g>
  <g
     inkscape:groupmode="layer"
     id="layer7"
     inkscape:label="[export] fistx2"
     style="display:none">
    <path
       id="path870-1"
       style="display:inline;fill:#ffffff;fill-opacity:1;stroke:none;stroke-width:0.189934px;stroke-linecap:butt;stroke-linejoin:miter;stroke-opacity:1"
       d="m 10.899643,3.9420464 c -0.04334,0.0021 -0.08584,0.0066 -0.127241,0.0141 -0.407436,0.07348 -1.1030848,0.74349 -1.4148618,1.031283 -0.311777,0.287792 -0.863386,-0.191751 -1.438974,-0.04785 -0.575587,0.143897 -1.175312,0.839532 -1.535054,0.983429 -0.359742,0.143897 -0.824019,-0.374106 -1.438974,-0.215902 -0.877643,0.225784 -1.545527,2.195761 -1.570667,3.081608 -0.02685,0.945953 0.281669,2.6959116 0.635464,3.2259136 0.400232,0.59957 0.685399,0.479927 1.19896,0.413627 0.421687,-0.05444 0.781325,-0.157802 0.727833,-0.744528 -0.05014,-0.230859 -0.08416,-0.508769 -0.10387,-0.820204 -0.03942,-0.622871 -0.02162,-1.3757876 0.05601,-2.1004056 l 0.427723,0.04489 c -0.07499,0.699889 -0.09204,1.4346746 -0.05453,2.0273246 0.01875,0.296326 0.05209,0.558001 0.09534,0.757141 0.04325,0.199139 0.108687,0.336737 0.131693,0.363175 0.142237,0.163458 0.262456,0.285188 0.433287,0.367256 0.170832,0.08207 0.405669,0.131529 0.794979,0.10795 0.492795,-0.02985 0.958291,-0.473559 1.168169,-0.70335 -0.158809,-0.200192 -0.202443,-0.465166 -0.230369,-0.756027 -0.02926,-0.304768 -0.02397,-0.638681 -0.0056,-0.928156 0.03403,-0.5350836 0.291949,-2.1901776 0.291949,-2.1901776 l 0.425869,0.06455 c 10e-7,0 -0.258695,1.706348 -0.287127,2.1534526 -0.01739,0.27351 -0.02175,0.590479 0.0041,0.859526 0.02584,0.269047 0.101488,0.489101 0.147274,0.54124 0.114466,0.130349 0.353788,0.250326 0.62656,0.320885 0.2727728,0.07056 0.5753328,0.09761 0.7949778,0.08569 0.447778,-0.0243 0.650775,-0.09383 0.915543,-0.330901 0.09402,-0.08419 0.197825,-0.287088 0.265239,-0.532706 0.06742,-0.245618 0.10566,-0.530125 0.124645,-0.771237 0.01314,-0.166881 0.02348,-0.6955586 0.02819,-1.1652016 0.0047,-0.469643 0.0056,-0.8918 0.0056,-0.8918 l 0.430319,0.0015 c 0,0 -8.62e-4,0.423124 -0.0056,0.894768 -0.0047,0.471644 -0.01126,0.9794556 -0.02819,1.1945076 -0.02051,0.260452 -0.062,0.565993 -0.140225,0.850995 -0.025,0.09107 -0.05496,0.17889 -0.08829,0.264499 0.767273,-0.0081 1.213124,0.126837 1.343266,0.161741 0.0055,-0.01116 0.0062,-0.01761 0.01261,-0.02968 0.06867,-0.129715 0.193022,-0.313931 0.43032,-0.577594 0.467252,-0.519167 0.775688,-0.755656 0.775688,-0.755656 l 0.327933,-0.186595 c 0.407705,-0.5276546 0.08766,-2.8353046 0.03969,-3.7226686 -0.04797,-0.887364 -0.695394,-1.534851 -1.00717,-1.702731 -0.311777,-0.16788 -1.595571,0.505708 -1.665635,0.069 -0.03057,-0.19051 -0.866695,-0.737486 -1.516877,-0.706689 z m 4.391115,6.5297296 c -0.28316,-0.01932 -0.724603,0.298675 -1.024977,0.764559 -0.178675,0.27713 -0.324427,0.404284 -0.370224,0.490788 -0.02203,0.04162 -0.02959,0.0638 -0.03227,0.07271 l -0.08384,0.189934 -0.19216,-0.0048 c 0,0 -0.547236,-0.159704 -1.367378,-0.158773 l 3.8e-4,0.0019 c -0.669879,0.09106 -1.016613,0.655909 -1.039073,0.989735 -0.0141,0.209609 -0.01953,0.426218 0.02115,0.604303 0.04068,0.178085 0.11482,0.310752 0.275998,0.405094 l -0.0015,0.0026 c 0.260724,0.168175 0.549859,0.408117 1.147766,0.539383 1.190557,0.261377 2.011045,0.222483 2.414983,0.02411 0.448715,-0.220359 0.697459,-1.706222 0.817237,-2.570418 0.119669,-0.863415 -0.15933,-1.137418 -0.399159,-1.281315 -0.04483,-0.04269 -0.10159,-0.06528 -0.166933,-0.06974 z m -6.0675068,1.535056 c -0.200498,0.238618 -0.626781,0.667605 -1.195621,0.809445 0.130085,0.02405 0.536209,-0.0038 0.68944,0.0153 0.567549,0.07072 0.671693,0.121 1.114492,0.256226 0.4427988,0.135226 0.8545588,0.189776 1.0397028,0.204959 -0.0543,-0.237731 -0.03823,-0.279089 -0.02356,-0.497263 0.01135,-0.168683 0.07169,-0.351462 0.170274,-0.5264 -0.106442,0.01899 -0.21961,0.03161 -0.34129,0.03821 -0.271458,0.01473 -0.606074,-0.01342 -0.9270418,-0.09645 -0.184633,-0.04776 -0.365505,-0.112765 -0.526399,-0.204031 z"
       sodipodi:nodetypes="ssssssssscsccssssscscccsssssssssccssscccsccssssscscccccssccssscsccscszcsscss" />
    <path
       id="path971"
       style="display:inline;fill:#ffffff;fill-opacity:1;stroke:none;stroke-width:0.189934px;stroke-linecap:butt;stroke-linejoin:miter;stroke-opacity:1"
       d="m 20.380103,14.539323 c -0.04334,0.0021 -0.08584,0.0066 -0.127241,0.0141 -0.407436,0.07348 -1.103085,0.74349 -1.414862,1.031283 -0.311777,0.287792 -0.863386,-0.191751 -1.438974,-0.04785 -0.575587,0.143897 -1.175312,0.839532 -1.535054,0.983429 -0.359742,0.143897 -0.824019,-0.374106 -1.438974,-0.215902 -0.877643,0.225784 -1.545527,2.195761 -1.570667,3.081608 -0.02685,0.945953 0.281669,2.695911 0.635464,3.225913 0.400232,0.59957 0.685399,0.479927 1.19896,0.413627 0.421687,-0.05444 0.781325,-0.157802 0.727833,-0.744528 -0.05014,-0.230859 -0.08416,-0.508768 -0.10387,-0.820203 -0.03942,-0.622871 -0.02162,-1.375788 0.05601,-2.100406 l 0.427723,0.04489 c -0.07499,0.699889 -0.09204,1.434675 -0.05453,2.027325 0.01875,0.296326 0.05209,0.558 0.09534,0.75714 0.04325,0.199139 0.108687,0.336737 0.131693,0.363175 0.142237,0.163458 0.262456,0.285188 0.433287,0.367256 0.170832,0.08207 0.405669,0.131529 0.794979,0.10795 0.492795,-0.02985 0.958291,-0.473559 1.168169,-0.70335 -0.158809,-0.200192 -0.202443,-0.465165 -0.230369,-0.756026 -0.02926,-0.304768 -0.02397,-0.638681 -0.0056,-0.928156 0.03403,-0.535084 0.291949,-2.190178 0.291949,-2.190178 l 0.425869,0.06455 c 10e-7,0 -0.258695,1.706348 -0.287127,2.153453 -0.01739,0.27351 -0.02175,0.590479 0.0041,0.859526 0.02584,0.269047 0.101488,0.4891 0.147274,0.541239 0.114466,0.130349 0.353788,0.250326 0.62656,0.320885 0.272773,0.07056 0.575333,0.09761 0.794978,0.08569 0.447778,-0.0243 0.650774,-0.09383 0.915543,-0.330901 0.09402,-0.08419 0.197824,-0.287087 0.265239,-0.532705 0.06742,-0.245618 0.10566,-0.530125 0.124645,-0.771237 0.01314,-0.166881 0.02348,-0.695559 0.02819,-1.165202 0.0047,-0.469643 0.0056,-0.8918 0.0056,-0.8918 l 0.430319,0.0015 c 0,0 -8.62e-4,0.423124 -0.0056,0.894768 -0.0047,0.471644 -0.01126,0.979456 -0.02819,1.194508 -0.02051,0.260452 -0.062,0.565993 -0.140225,0.850995 -0.025,0.09107 -0.05496,0.17889 -0.08829,0.264498 0.767273,-0.0081 1.213124,0.126837 1.343266,0.161741 0.0055,-0.01116 0.0062,-0.01761 0.01261,-0.02968 0.06867,-0.129715 0.193022,-0.31393 0.430319,-0.577593 0.467252,-0.519167 0.775689,-0.755656 0.775689,-0.755656 l 0.327932,-0.186595 c 0.407706,-0.527655 0.08766,-2.835305 0.03969,-3.722669 -0.04797,-0.887364 -0.695394,-1.534851 -1.00717,-1.702731 -0.311777,-0.16788 -1.595571,0.505708 -1.665634,0.069 -0.03057,-0.19051 -0.866695,-0.737486 -1.516877,-0.706689 z m 4.391115,6.52973 c -0.28316,-0.01932 -0.724604,0.298675 -1.024977,0.764559 -0.178675,0.277129 -0.324427,0.404283 -0.370224,0.490787 -0.02203,0.04162 -0.02959,0.0638 -0.03227,0.07271 l -0.08384,0.189934 -0.19216,-0.0048 c 0,0 -0.547236,-0.159704 -1.367378,-0.158773 l 3.8e-4,0.0019 c -0.669879,0.09106 -1.016613,0.655909 -1.039073,0.989735 -0.0141,0.209609 -0.01953,0.426218 0.02115,0.604303 0.04068,0.178085 0.11482,0.310752 0.275998,0.405094 l -0.0015,0.0026 c 0.260724,0.168175 0.549859,0.408117 1.147766,0.539383 1.190557,0.261377 2.011045,0.222483 2.414983,0.02411 0.448715,-0.220359 0.697459,-1.706222 0.817237,-2.570418 0.119669,-0.863414 -0.15933,-1.137417 -0.399159,-1.281314 -0.04483,-0.04269 -0.10159,-0.06528 -0.166934,-0.06974 z m -6.067507,1.535055 c -0.200498,0.238618 -0.626781,0.667605 -1.195621,0.809445 0.130085,0.02405 0.536209,-0.0038 0.68944,0.0153 0.567549,0.07072 0.671693,0.121 1.114492,0.256226 0.442799,0.135226 0.854559,0.189776 1.039703,0.204959 -0.0543,-0.237731 -0.03823,-0.279089 -0.02356,-0.497263 0.01135,-0.168683 0.07169,-0.351462 0.170273,-0.5264 -0.106441,0.01899 -0.219609,0.03161 -0.341289,0.03821 -0.271458,0.01473 -0.606074,-0.01342 -0.927042,-0.09645 -0.184633,-0.04776 -0.365505,-0.112765 -0.526399,-0.204031 z"
       sodipodi:nodetypes="ssssssssscsccssssscscccsssssssssccssscccsccssssscscccccssccssscsccscszcsscss" />
  </g>
  <g
     inkscape:groupmode="layer"
     id="layer6"
     inkscape:label="[export] fist"
     style="display:none">
    <path
       id="path870"
       style="display:inline;fill:#ffffff;fill-opacity:1;stroke:none;stroke-width:0.264583px;stroke-linecap:butt;stroke-linejoin:miter;stroke-opacity:1"
       d="m 16.211097,6.4233704 c -0.06038,0.00286 -0.119578,0.00924 -0.17725,0.019637 -0.567569,0.1023541 -1.536627,1.0357009 -1.97094,1.436605 -0.434313,0.4009009 -1.202719,-0.2671157 -2.004528,-0.066663 -0.801808,0.2004518 -1.637241,1.1694901 -2.1383707,1.3699421 -0.50113,0.200452 -1.147881,-0.5211397 -2.004529,-0.3007569 -1.22258,0.3145239 -2.15296,3.0587524 -2.18798,4.2927614 -0.0374,1.317737 0.392372,3.755475 0.885217,4.493782 0.557535,0.835217 0.95478,0.66855 1.670183,0.576193 0.587421,-0.07584 1.088407,-0.219823 1.013891,-1.037147 -0.06985,-0.321593 -0.117237,-0.708727 -0.144694,-1.142565 -0.05491,-0.867676 -0.03012,-1.916509 0.07803,-2.92592 l 0.595829,0.06253 c -0.10446,0.974964 -0.128214,1.99854 -0.07596,2.824117 0.02612,0.412789 0.07256,0.777309 0.132808,1.054716 0.06025,0.277406 0.1514027,0.469083 0.1834507,0.505912 0.198141,0.227701 0.365609,0.397275 0.603581,0.511597 0.237973,0.114322 0.565107,0.183224 1.107426,0.150378 0.686477,-0.04158 1.334925,-0.659681 1.627291,-0.979785 -0.221225,-0.278873 -0.282009,-0.647987 -0.320911,-1.053165 -0.04076,-0.42455 -0.03339,-0.889699 -0.0078,-1.292945 0.0474,-0.745386 0.406693,-3.050976 0.406693,-3.050976 l 0.593246,0.08992 c 10e-7,0 -0.360369,2.376988 -0.399976,2.999817 -0.02423,0.381006 -0.0303,0.822552 0.0057,1.197342 0.03599,0.37479 0.141375,0.681329 0.205156,0.75396 0.159454,0.18158 0.492836,0.348711 0.872815,0.447001 0.379979,0.09829 0.801454,0.135974 1.107425,0.119372 0.623766,-0.03385 0.906545,-0.130707 1.275375,-0.460954 0.130975,-0.117275 0.275575,-0.39992 0.369486,-0.742073 0.09391,-0.342152 0.147187,-0.738477 0.173633,-1.074353 0.0183,-0.232469 0.03271,-0.968932 0.03927,-1.623157 0.0066,-0.654225 0.0078,-1.242301 0.0078,-1.242301 l 0.599446,0.0021 c 0,0 -0.0012,0.589423 -0.0078,1.246435 -0.0066,0.657013 -0.01569,1.364408 -0.03927,1.663981 -0.02857,0.362817 -0.08637,0.788443 -0.195337,1.185458 -0.03482,0.126863 -0.07656,0.249199 -0.12299,0.368453 1.068831,-0.01126 1.689913,0.176687 1.871204,0.225309 0.0076,-0.01555 0.0087,-0.02453 0.01757,-0.04134 0.09566,-0.180696 0.268886,-0.437313 0.599446,-0.804602 0.650894,-0.723214 1.080555,-1.052649 1.080555,-1.052649 l 0.456819,-0.259932 C 22.560051,14.134367 22.114221,10.91975 22.047397,9.6836286 21.980577,8.4475067 21.078695,7.5455413 20.644382,7.3116803 20.210069,7.0778175 18.42171,8.0161446 18.32411,7.4077983 18.28153,7.1424117 17.116781,6.3804612 16.211061,6.4233621 Z m 6.116939,9.0960856 c -0.394449,-0.02692 -1.009393,0.416062 -1.42782,1.065051 -0.248899,0.386048 -0.451935,0.563176 -0.515731,0.683679 -0.03069,0.05797 -0.04122,0.08888 -0.04496,0.101286 l -0.116789,0.264583 -0.267684,-0.0067 c 0,0 -0.762314,-0.222472 -1.904793,-0.221175 l 5.29e-4,0.0026 c -0.93316,0.12685 -1.416169,0.913698 -1.447457,1.378727 -0.01964,0.291991 -0.02721,0.593732 0.02946,0.841809 0.05667,0.248078 0.159948,0.432886 0.384473,0.564307 l -0.0021,0.0036 c 0.363196,0.234272 0.765969,0.568518 1.598869,0.751375 1.658477,0.364105 2.801438,0.309924 3.364135,0.03359 0.625071,-0.306966 0.971578,-2.376813 1.138432,-3.58066 0.166703,-1.202759 -0.221951,-1.584452 -0.556038,-1.784904 -0.06245,-0.05947 -0.141518,-0.09094 -0.232544,-0.09715 z m -8.452197,2.138371 c -0.279299,0.332402 -0.873123,0.929992 -1.665532,1.127579 0.181212,0.0335 0.746954,-0.0053 0.960409,0.02132 0.79061,0.09852 0.935685,0.168556 1.552516,0.35693 0.616831,0.188373 1.190423,0.264362 1.448334,0.285513 -0.07564,-0.331166 -0.05326,-0.388779 -0.03282,-0.692701 0.01581,-0.23498 0.09987,-0.489595 0.237195,-0.733289 -0.148275,0.02645 -0.305921,0.04403 -0.475424,0.05323 -0.378149,0.02052 -0.844278,-0.0187 -1.291394,-0.134358 -0.257199,-0.06653 -0.509159,-0.157085 -0.733288,-0.284221 z"
       sodipodi:nodetypes="ssssssssscsccssssscscccsssssssssccssscccsccssssscscccccssccssscsccscszcsscss" />
  </g>
  <g
     inkscape:groupmode="layer"
     id="layer5"
     inkscape:label="[export] maskx2"
     style="display:none">
    <path
       id="path997-8"
       style="display:inline;fill:#ffffff;fill-opacity:1;stroke:none;stroke-width:0.190155px;stroke-linecap:butt;stroke-linejoin:miter;stroke-opacity:1"
       d="m 11.596528,14.557595 c -0.100644,-0.02356 -0.395409,0.35458 -0.532585,0.428593 -0.316855,0.17096 -0.685427,0.297964 -0.613178,0.365084 0.135559,0.125931 0.829236,-0.07376 1.222272,0.03417 0.274893,0.07549 0.735577,0.131136 0.747251,0.415965 0.02365,0.576824 -0.890058,0.722156 -1.439166,0.963406 -0.454525,0.199697 -0.97029,0.568263 -1.0313725,1.056627 -0.07505,0.60009 0.7331595,0.991832 0.9084405,1.57064 0.154492,0.510167 -0.05208,1.085533 0.101758,1.595896 0.199277,0.661102 0.486474,1.373057 1.032486,1.795708 0.648662,0.502109 1.555062,0.589068 2.372861,0.652919 0.766358,0.05983 1.553136,-0.04553 2.291523,-0.259236 0.387094,-0.112033 0.97406,-0.475446 1.128308,-0.477247 0.146778,-0.0017 0.751969,0.38597 1.149475,0.501015 0.738388,0.213706 1.525166,0.319439 2.291524,0.259608 0.817802,-0.06385 1.724198,-0.150809 2.372861,-0.652917 0.546014,-0.42265 0.901123,-0.896912 1.100399,-1.558014 0.15384,-0.510364 0.01518,-1.153642 0.169674,-1.663809 0.17528,-0.578807 0.592998,-0.630987 0.517942,-1.231077 -0.06107,-0.488364 -0.407066,-0.789019 -0.86159,-0.988714 -0.549108,-0.241251 -1.71382,0.208113 -1.719307,-0.369169 -0.0053,-0.556133 1.28326,-0.716301 1.558689,-0.740258 0.494061,-0.04297 0.50579,-0.618895 0.559768,-0.7253 0.04462,-0.08795 -0.04037,-0.472694 -0.397082,-0.521526 -0.102936,-0.01409 -0.168763,0.514786 -0.514575,0.615875 -0.951847,0.278247 -1.036605,0.234693 -1.626851,0.734421 -0.538047,0.455533 -0.510222,0.77834 -0.04652,1.332575 0.402243,0.480786 1.102713,0.08696 2.00332,0.432892 0.308114,0.118352 0.370131,0.471262 0.08473,0.645541 -1.058229,0.646209 -2.701825,0.24427 -3.931244,0.405407 -0.716664,0.09393 -1.446315,0.128859 -2.146679,0.307518 -0.154119,0.03931 -0.328896,0.102547 -0.500273,0.09397 -0.203204,-0.01019 -0.420171,-0.07029 -0.607607,-0.118104 -0.700364,-0.178659 -1.429644,-0.213213 -2.146307,-0.307145 -1.229422,-0.161138 -2.635695,0.206472 -3.693925,-0.439736 -0.2854,-0.174279 -0.629054,-0.509078 -0.56044,-0.83193 0.102275,-0.481229 0.69048,-0.607626 1.290236,-0.82339 0.655081,-0.235667 1.114692,-0.953783 1.065541,-1.2141 -0.140728,-0.745322 -0.859314,-1.112709 -1.600353,-1.286148 z m 2.732002,5.515257 c 1.319683,0.02252 2.006649,0.472377 2.054571,1.052541 -0.05084,0.775662 -0.587174,1.185348 -2.020403,1.214099 -1.429879,-0.132447 -1.821134,-0.834026 -1.815021,-1.282066 0.0059,-0.44803 0.945798,-0.972132 1.780853,-0.984574 z m 6.934367,0.02377 c 0.835053,0.01244 1.774959,0.536916 1.780851,0.984946 0.0061,0.448039 -0.38477,1.149618 -1.814649,1.282064 -1.433229,-0.02875 -1.969942,-0.438435 -2.020776,-1.214098 0.04792,-0.580163 0.734889,-1.030396 2.054574,-1.052912 z"
       sodipodi:nodetypes="ssssssssssssssssssssssssssssssssssssssscccccccccc" />
    <path
       id="path1080"
       style="display:inline;fill:#ffffff;fill-opacity:1;stroke:none;stroke-width:0.190155px;stroke-linecap:butt;stroke-linejoin:miter;stroke-opacity:1"
       d="m 5.1236856,4.9192006 c -0.100644,-0.02356 -0.395409,0.35458 -0.532585,0.428593 -0.316855,0.17096 -0.685427,0.297964 -0.613178,0.365084 0.135559,0.125931 0.829236,-0.07376 1.222272,0.03417 0.274893,0.07549 0.735577,0.131136 0.747251,0.415965 0.02365,0.576824 -0.890058,0.722156 -1.439166,0.963406 -0.454525,0.199697 -0.97029,0.568263 -1.031372,1.056627 -0.07505,0.60009 0.733159,0.991832 0.90844,1.57064 0.154492,0.5101674 -0.05208,1.0855334 0.101758,1.5958964 0.199277,0.661102 0.486474,1.373057 1.032486,1.795708 0.648662,0.502109 1.555062,0.589068 2.372861,0.652919 0.766358,0.05983 1.553136,-0.04553 2.2915234,-0.259236 0.387094,-0.112033 0.974059,-0.475446 1.128307,-0.477247 0.146779,-0.0017 0.75197,0.38597 1.149476,0.501015 0.738388,0.213706 1.525166,0.319439 2.291524,0.259608 0.817802,-0.06385 1.724198,-0.150809 2.372861,-0.652917 0.546014,-0.42265 0.901123,-0.896912 1.100399,-1.558014 0.15384,-0.510364 0.01518,-1.153642 0.169674,-1.6638094 0.17528,-0.578807 0.592998,-0.630987 0.517942,-1.231077 -0.06107,-0.488364 -0.407066,-0.789019 -0.86159,-0.988714 -0.549108,-0.241251 -1.71382,0.208113 -1.719307,-0.369169 -0.0053,-0.556133 1.28326,-0.716301 1.558689,-0.740258 0.494061,-0.04297 0.50579,-0.618895 0.559768,-0.7253 0.04462,-0.08795 -0.04037,-0.472694 -0.397082,-0.521526 -0.102936,-0.01409 -0.168763,0.514786 -0.514575,0.615875 -0.951847,0.278247 -1.036605,0.234693 -1.626851,0.734421 -0.538047,0.455533 -0.510222,0.77834 -0.04652,1.332575 0.402243,0.480786 1.102713,0.08696 2.00332,0.432892 0.308114,0.118352 0.370131,0.471262 0.08473,0.645541 -1.058229,0.646209 -2.701825,0.24427 -3.931244,0.405407 -0.716664,0.09393 -1.446315,0.128859 -2.146679,0.307518 -0.154119,0.03931 -0.328896,0.102547 -0.500273,0.09397 -0.203205,-0.01019 -0.420172,-0.07029 -0.607608,-0.118104 -0.700363,-0.178659 -1.4296434,-0.213213 -2.1463064,-0.307145 -1.229422,-0.161138 -2.635695,0.206472 -3.693925,-0.439736 -0.2854,-0.174279 -0.629054,-0.509078 -0.56044,-0.83193 0.102275,-0.481229 0.69048,-0.607626 1.290236,-0.82339 0.655081,-0.235667 1.114692,-0.953783 1.065541,-1.2141 -0.140728,-0.745322 -0.859314,-1.112709 -1.600353,-1.286148 z m 2.732002,5.5152574 c 1.319683,0.02252 2.006649,0.472377 2.054572,1.052541 -0.05084,0.775662 -0.587175,1.185348 -2.020403,1.214099 -1.429879,-0.132447 -1.821134,-0.834026 -1.815021,-1.282066 0.0059,-0.44803 0.945798,-0.972132 1.780852,-0.984574 z m 6.9343684,0.02377 c 0.835052,0.01244 1.774958,0.536916 1.780851,0.984946 0.0061,0.448039 -0.38477,1.149618 -1.814649,1.282064 -1.433229,-0.02875 -1.969942,-0.438435 -2.020776,-1.214098 0.04792,-0.580163 0.734889,-1.030396 2.054574,-1.052912 z"
       sodipodi:nodetypes="ssssssssssssssssssssssssssssssssssssssscccccccccc" />
  </g>
  <g
     inkscape:groupmode="layer"
     id="layer4"
     inkscape:label="[export] mask"
     style="display:none">
    <path
       id="path997"
       style="fill:#ffffff;fill-opacity:1;stroke:none;stroke-width:0.264583px;stroke-linecap:butt;stroke-linejoin:miter;stroke-opacity:1"
       d="m 5.7971199,7.7089187 c -0.140041,-0.032777 -0.550173,0.4933635 -0.74104,0.596346 -0.440874,0.2378747 -0.953707,0.4145885 -0.853178,0.5079793 0.188616,0.1752214 1.153802,-0.1026237 1.700672,0.047542 0.382488,0.1050282 1.023486,0.1824627 1.03973,0.578776 0.0329,0.802594 -1.238431,1.00481 -2.002462,1.340487 -0.632428,0.277857 -1.350065,0.790682 -1.435055,1.470194 -0.104433,0.834968 1.020121,1.38004 1.264006,2.185396 0.214962,0.709848 -0.07246,1.510414 0.141593,2.220536 0.277273,0.919859 0.676879,1.910477 1.436605,2.498556 0.902551,0.698634 2.163717,0.81963 3.301607,0.908472 1.0663141,0.08325 2.1610401,-0.06335 3.1884361,-0.360702 0.538602,-0.155882 1.35531,-0.661537 1.56993,-0.664042 0.204228,-0.0024 1.046294,0.537039 1.599386,0.697115 1.027396,0.29735 2.122121,0.444468 3.188435,0.361218 1.137892,-0.08884 2.399057,-0.209837 3.301608,-0.908471 0.759726,-0.588078 1.253826,-1.247968 1.531099,-2.167827 0.214054,-0.710123 0.02113,-1.605182 0.236087,-2.31503 0.243884,-0.805355 0.825099,-0.877958 0.720665,-1.712926 -0.08499,-0.679512 -0.566393,-1.097843 -1.19882,-1.3757 -0.764031,-0.335677 -2.384616,0.289568 -2.392249,-0.513664 -0.0074,-0.773805 1.785531,-0.996663 2.168765,-1.029997 0.687439,-0.05979 0.703757,-0.8611339 0.778863,-1.0091873 0.06208,-0.1223704 -0.05617,-0.6577079 -0.5525,-0.7256526 -0.143223,-0.019606 -0.234818,0.7162764 -0.715983,0.8569322 -1.324404,0.3871541 -1.442335,0.3265531 -2.263606,1.0218757 -0.748641,0.633831 -0.709927,1.082985 -0.06474,1.85415 0.559682,0.668967 1.534319,0.120982 2.787427,0.602326 0.428711,0.164677 0.515003,0.655717 0.117896,0.89821 -1.472425,0.899138 -3.759331,0.339878 -5.46995,0.564085 -0.997168,0.130697 -2.012408,0.179295 -2.986898,0.427881 -0.214442,0.0547 -0.457626,0.142682 -0.696082,0.130742 -0.282738,-0.01416 -0.584628,-0.0978 -0.845426,-0.164331 C 12.677451,14.281621 11.662728,14.233541 10.66556,14.102844 8.9549379,13.878636 6.9982439,14.390132 5.5258189,13.490995 5.1287129,13.248501 4.6505509,12.782661 4.7460219,12.333443 4.8883249,11.663861 5.706757,11.487991 6.5412609,11.187776 7.4527421,10.859868 8.0922471,9.8606786 8.0238579,9.4984736 7.8280496,8.461427 6.8282049,7.950243 5.7971199,7.7089187 Z m 3.801319,7.6739503 c 1.8362131,0.03133 2.7920601,0.657268 2.8587401,1.46451 -0.07073,1.07926 -0.816998,1.649299 -2.8111981,1.689302 -1.989538,-0.184286 -2.533932,-1.160466 -2.525427,-1.78387 0.0082,-0.623391 1.315988,-1.352629 2.477885,-1.369942 z m 9.6485061,0.03307 c 1.161896,0.01731 2.469685,0.747068 2.477885,1.370459 0.0085,0.623403 -0.535372,1.599584 -2.52491,1.78387 -1.9942,-0.04 -2.740985,-0.610042 -2.811715,-1.689302 0.06668,-0.807243 1.022526,-1.433697 2.85874,-1.465027 z"
       sodipodi:nodetypes="ssssssssssssssssssssssssssssssssssssssscccccccccc" />
  </g>
  <g
     inkscape:groupmode="layer"
     id="layer3"
     inkscape:label="[export] shieldx2"
     style="display:inline"
     transform="translate(-13.52544,-45.291531)">
    <g
       id="g936"
       transform="translate(-34.902332,0.63875183)">
      <g
         id="g893"
         transform="matrix(0.71646109,0,0,0.71646109,37.159416,12.475789)">
        <path
           style="color:#000000;font-style:normal;font-variant:normal;font-weight:normal;font-stretch:normal;font-size:medium;line-height:normal;font-family:sans-serif;font-variant-ligatures:normal;font-variant-position:normal;font-variant-caps:normal;font-variant-numeric:normal;font-variant-alternates:normal;font-variant-east-asian:normal;font-feature-settings:normal;font-variation-settings:normal;text-indent:0;text-align:start;text-decoration:none;text-decoration-line:none;text-decoration-style:solid;text-decoration-color:#000000;letter-spacing:normal;word-spacing:normal;text-transform:none;writing-mode:lr-tb;direction:ltr;text-orientation:mixed;dominant-baseline:auto;baseline-shift:baseline;text-anchor:start;white-space:normal;shape-padding:0;shape-margin:0;inline-size:0;clip-rule:nonzero;display:inline;overflow:visible;visibility:visible;opacity:1;isolation:auto;mix-blend-mode:normal;color-interpolation:sRGB;color-interpolation-filters:linearRGB;solid-color:#000000;solid-opacity:1;vector-effect:none;fill:#ffffff;fill-opacity:1;fill-rule:nonzero;stroke:none;stroke-linecap:butt;stroke-linejoin:miter;stroke-miterlimit:4;stroke-dasharray:none;stroke-dashoffset:0;stroke-opacity:1;color-rendering:auto;image-rendering:auto;shape-rendering:auto;text-rendering:auto;enable-background:accumulate;stop-color:#000000;stop-opacity:1"
           d="m 28.210938,49.623047 -0.476563,0.375 c -1.708828,1.347601 -5.257133,2.803886 -7.361328,2.791015 l -0.720703,-0.0039 -0.04883,0.71875 c -0.214054,3.074806 0.991956,6.468799 2.646484,9.464844 1.654528,2.996045 3.754395,5.579382 5.574219,6.996094 l 0.521484,0.40625 0.478516,-0.455078 c 1.490268,-1.415559 3.568945,-3.995441 5.265625,-6.980469 1.69668,-2.985028 3.026554,-6.357275 2.791015,-9.417969 l -0.05469,-0.722656 -0.726563,0.01563 C 33.958969,52.854655 30.391234,51.350623 28.685547,50 Z m -0.0039,1.847656 c 1.868996,1.354876 4.593023,2.489472 7.064453,2.693359 0.02203,2.429724 -1.001935,5.348633 -2.515625,8.011719 -1.448195,2.54786 -3.181152,4.70558 -4.492187,6.060547 -1.477065,-1.30429 -3.256621,-3.450539 -4.669922,-6.009766 -1.467075,-2.656601 -2.409409,-5.595381 -2.386719,-8.083984 2.420721,-0.222019 5.124212,-1.322241 7,-2.671875 z"
           id="path889" />
        <path
           style="fill:#ffffff;fill-opacity:1;stroke:none;stroke-width:0.160812px;stroke-linecap:butt;stroke-linejoin:miter;stroke-opacity:1"
           d="m 22.562542,55.393514 c 1.652588,-0.174441 4.404598,-1.433162 5.625463,-2.501166 1.216225,1.068294 4.121585,2.362196 5.75083,2.408802 -0.122394,3.981187 -3.866646,9.174291 -5.695038,11.100816 -2.185146,-1.887011 -5.652989,-7.034114 -5.681255,-11.008452 z"
           id="path891"
           sodipodi:nodetypes="ccccc" />
      </g>
      <g
         id="g899"
         transform="matrix(0.71646109,0,0,0.71646109,48.026232,20.933005)">
        <path
           style="color:#000000;font-style:normal;font-variant:normal;font-weight:normal;font-stretch:normal;font-size:medium;line-height:normal;font-family:sans-serif;font-variant-ligatures:normal;font-variant-position:normal;font-variant-caps:normal;font-variant-numeric:normal;font-variant-alternates:normal;font-variant-east-asian:normal;font-feature-settings:normal;font-variation-settings:normal;text-indent:0;text-align:start;text-decoration:none;text-decoration-line:none;text-decoration-style:solid;text-decoration-color:#000000;letter-spacing:normal;word-spacing:normal;text-transform:none;writing-mode:lr-tb;direction:ltr;text-orientation:mixed;dominant-baseline:auto;baseline-shift:baseline;text-anchor:start;white-space:normal;shape-padding:0;shape-margin:0;inline-size:0;clip-rule:nonzero;display:inline;overflow:visible;visibility:visible;opacity:1;isolation:auto;mix-blend-mode:normal;color-interpolation:sRGB;color-interpolation-filters:linearRGB;solid-color:#000000;solid-opacity:1;vector-effect:none;fill:#ffffff;fill-opacity:1;fill-rule:nonzero;stroke:none;stroke-linecap:butt;stroke-linejoin:miter;stroke-miterlimit:4;stroke-dasharray:none;stroke-dashoffset:0;stroke-opacity:1;color-rendering:auto;image-rendering:auto;shape-rendering:auto;text-rendering:auto;enable-background:accumulate;stop-color:#000000;stop-opacity:1"
           d="m 28.210938,49.623047 -0.476563,0.375 c -1.708828,1.347601 -5.257133,2.803886 -7.361328,2.791015 l -0.720703,-0.0039 -0.04883,0.71875 c -0.214054,3.074806 0.991956,6.468799 2.646484,9.464844 1.654528,2.996045 3.754395,5.579382 5.574219,6.996094 l 0.521484,0.40625 0.478516,-0.455078 c 1.490268,-1.415559 3.568945,-3.995441 5.265625,-6.980469 1.69668,-2.985028 3.026554,-6.357275 2.791015,-9.417969 l -0.05469,-0.722656 -0.726563,0.01563 C 33.958969,52.854655 30.391234,51.350623 28.685547,50 Z m -0.0039,1.847656 c 1.868996,1.354876 4.593023,2.489472 7.064453,2.693359 0.02203,2.429724 -1.001935,5.348633 -2.515625,8.011719 -1.448195,2.54786 -3.181152,4.70558 -4.492187,6.060547 -1.477065,-1.30429 -3.256621,-3.450539 -4.669922,-6.009766 -1.467075,-2.656601 -2.409409,-5.595381 -2.386719,-8.083984 2.420721,-0.222019 5.124212,-1.322241 7,-2.671875 z"
           id="path895" />
        <path
           style="fill:#ffffff;fill-opacity:1;stroke:none;stroke-width:0.160812px;stroke-linecap:butt;stroke-linejoin:miter;stroke-opacity:1"
           d="m 22.562542,55.393514 c 1.652588,-0.174441 4.404598,-1.433162 5.625463,-2.501166 1.216225,1.068294 4.121585,2.362196 5.75083,2.408802 -0.122394,3.981187 -3.866646,9.174291 -5.695038,11.100816 -2.185146,-1.887011 -5.652989,-7.034114 -5.681255,-11.008452 z"
           id="path897"
           sodipodi:nodetypes="ccccc" />
      </g>
    </g>
  </g>
  <g
     inkscape:groupmode="layer"
     id="layer2"
     inkscape:label="[export] shield"
     style="display:none"
     transform="translate(-13.52544,-45.291531)">
    <g
       id="g887"
       transform="translate(-0.14051879,-0.27682692)">
      <path
         style="color:#000000;font-style:normal;font-variant:normal;font-weight:normal;font-stretch:normal;font-size:medium;line-height:normal;font-family:sans-serif;font-variant-ligatures:normal;font-variant-position:normal;font-variant-caps:normal;font-variant-numeric:normal;font-variant-alternates:normal;font-variant-east-asian:normal;font-feature-settings:normal;font-variation-settings:normal;text-indent:0;text-align:start;text-decoration:none;text-decoration-line:none;text-decoration-style:solid;text-decoration-color:#000000;letter-spacing:normal;word-spacing:normal;text-transform:none;writing-mode:lr-tb;direction:ltr;text-orientation:mixed;dominant-baseline:auto;baseline-shift:baseline;text-anchor:start;white-space:normal;shape-padding:0;shape-margin:0;inline-size:0;clip-rule:nonzero;display:inline;overflow:visible;visibility:visible;opacity:1;isolation:auto;mix-blend-mode:normal;color-interpolation:sRGB;color-interpolation-filters:linearRGB;solid-color:#000000;solid-opacity:1;vector-effect:none;fill:#ffffff;fill-opacity:1;fill-rule:nonzero;stroke:none;stroke-linecap:butt;stroke-linejoin:miter;stroke-miterlimit:4;stroke-dasharray:none;stroke-dashoffset:0;stroke-opacity:1;color-rendering:auto;image-rendering:auto;shape-rendering:auto;text-rendering:auto;enable-background:accumulate;stop-color:#000000;stop-opacity:1"
         d="m 28.210938,49.623047 -0.476563,0.375 c -1.708828,1.347601 -5.257133,2.803886 -7.361328,2.791015 l -0.720703,-0.0039 -0.04883,0.71875 c -0.214054,3.074806 0.991956,6.468799 2.646484,9.464844 1.654528,2.996045 3.754395,5.579382 5.574219,6.996094 l 0.521484,0.40625 0.478516,-0.455078 c 1.490268,-1.415559 3.568945,-3.995441 5.265625,-6.980469 1.69668,-2.985028 3.026554,-6.357275 2.791015,-9.417969 l -0.05469,-0.722656 -0.726563,0.01563 C 33.958969,52.854655 30.391234,51.350623 28.685547,50 Z m -0.0039,1.847656 c 1.868996,1.354876 4.593023,2.489472 7.064453,2.693359 0.02203,2.429724 -1.001935,5.348633 -2.515625,8.011719 -1.448195,2.54786 -3.181152,4.70558 -4.492187,6.060547 -1.477065,-1.30429 -3.256621,-3.450539 -4.669922,-6.009766 -1.467075,-2.656601 -2.409409,-5.595381 -2.386719,-8.083984 2.420721,-0.222019 5.124212,-1.322241 7,-2.671875 z"
         id="path26" />
      <path
         style="fill:#ffffff;fill-opacity:1;stroke:none;stroke-width:0.160812px;stroke-linecap:butt;stroke-linejoin:miter;stroke-opacity:1"
         d="m 22.562542,55.393514 c 1.652588,-0.174441 4.404598,-1.433162 5.625463,-2.501166 1.216225,1.068294 4.121585,2.362196 5.75083,2.408802 -0.122394,3.981187 -3.866646,9.174291 -5.695038,11.100816 -2.185146,-1.887011 -5.652989,-7.034114 -5.681255,-11.008452 z"
         id="path26-3"
         sodipodi:nodetypes="ccccc" />
    </g>
  </g>
</svg>
