<svg xmlns:dc="http://purl.org/dc/elements/1.1/" xmlns:cc="http://creativecommons.org/ns#" xmlns:rdf="http://www.w3.org/1999/02/22-rdf-syntax-ns#" xmlns:svg="http://www.w3.org/2000/svg" xmlns="http://www.w3.org/2000/svg" xmlns:xlink="http://www.w3.org/1999/xlink" xmlns:sodipodi="http://sodipodi.sourceforge.net/DTD/sodipodi-0.dtd" xmlns:inkscape="http://www.inkscape.org/namespaces/inkscape" width="28.574999mm" height="28.574999mm" viewBox="0 0 28.574999 28.574999" version="1.1" id="svg8" inkscape:version="1.0.2-2 (e86c870879, 2021-01-15)" sodipodi:docname="icons.svg">
  <defs id="defs2"/>
  <sodipodi:namedview id="base" pagecolor="#ffffff" bordercolor="#666666" borderopacity="1.0" inkscape:pageopacity="0.0" inkscape:pageshadow="2" inkscape:zoom="7.9195959" inkscape:cx="37.539281" inkscape:cy="37.799789" inkscape:document-units="mm" inkscape:current-layer="layer19" inkscape:document-rotation="0" showgrid="false" inkscape:window-width="1920" inkscape:window-height="1057" inkscape:window-x="1672" inkscape:window-y="-8" inkscape:window-maximized="1"/>
  <metadata id="metadata5">
    <rdf:RDF>
      <cc:Work rdf:about="">
        <dc:format>image/svg+xml</dc:format>
        <dc:type rdf:resource="http://purl.org/dc/dcmitype/StillImage"/>
        <dc:title/>
      </cc:Work>
    </rdf:RDF>
  </metadata>
  <g inkscape:groupmode="layer" id="layer6" inkscape:label="[export] fist" style="display:inline">
    <path id="path870" style="display:inline;fill:unset;fill-opacity:1;stroke:none;stroke-width:0.264583px;stroke-linecap:butt;stroke-linejoin:miter;stroke-opacity:1" d="m 16.211097,6.4233704 c -0.06038,0.00286 -0.119578,0.00924 -0.17725,0.019637 -0.567569,0.1023541 -1.536627,1.0357009 -1.97094,1.436605 -0.434313,0.4009009 -1.202719,-0.2671157 -2.004528,-0.066663 -0.801808,0.2004518 -1.637241,1.1694901 -2.1383707,1.3699421 -0.50113,0.200452 -1.147881,-0.5211397 -2.004529,-0.3007569 -1.22258,0.3145239 -2.15296,3.0587524 -2.18798,4.2927614 -0.0374,1.317737 0.392372,3.755475 0.885217,4.493782 0.557535,0.835217 0.95478,0.66855 1.670183,0.576193 0.587421,-0.07584 1.088407,-0.219823 1.013891,-1.037147 -0.06985,-0.321593 -0.117237,-0.708727 -0.144694,-1.142565 -0.05491,-0.867676 -0.03012,-1.916509 0.07803,-2.92592 l 0.595829,0.06253 c -0.10446,0.974964 -0.128214,1.99854 -0.07596,2.824117 0.02612,0.412789 0.07256,0.777309 0.132808,1.054716 0.06025,0.277406 0.1514027,0.469083 0.1834507,0.505912 0.198141,0.227701 0.365609,0.397275 0.603581,0.511597 0.237973,0.114322 0.565107,0.183224 1.107426,0.150378 0.686477,-0.04158 1.334925,-0.659681 1.627291,-0.979785 -0.221225,-0.278873 -0.282009,-0.647987 -0.320911,-1.053165 -0.04076,-0.42455 -0.03339,-0.889699 -0.0078,-1.292945 0.0474,-0.745386 0.406693,-3.050976 0.406693,-3.050976 l 0.593246,0.08992 c 10e-7,0 -0.360369,2.376988 -0.399976,2.999817 -0.02423,0.381006 -0.0303,0.822552 0.0057,1.197342 0.03599,0.37479 0.141375,0.681329 0.205156,0.75396 0.159454,0.18158 0.492836,0.348711 0.872815,0.447001 0.379979,0.09829 0.801454,0.135974 1.107425,0.119372 0.623766,-0.03385 0.906545,-0.130707 1.275375,-0.460954 0.130975,-0.117275 0.275575,-0.39992 0.369486,-0.742073 0.09391,-0.342152 0.147187,-0.738477 0.173633,-1.074353 0.0183,-0.232469 0.03271,-0.968932 0.03927,-1.623157 0.0066,-0.654225 0.0078,-1.242301 0.0078,-1.242301 l 0.599446,0.0021 c 0,0 -0.0012,0.589423 -0.0078,1.246435 -0.0066,0.657013 -0.01569,1.364408 -0.03927,1.663981 -0.02857,0.362817 -0.08637,0.788443 -0.195337,1.185458 -0.03482,0.126863 -0.07656,0.249199 -0.12299,0.368453 1.068831,-0.01126 1.689913,0.176687 1.871204,0.225309 0.0076,-0.01555 0.0087,-0.02453 0.01757,-0.04134 0.09566,-0.180696 0.268886,-0.437313 0.599446,-0.804602 0.650894,-0.723214 1.080555,-1.052649 1.080555,-1.052649 l 0.456819,-0.259932 C 22.560051,14.134367 22.114221,10.91975 22.047397,9.6836286 21.980577,8.4475067 21.078695,7.5455413 20.644382,7.3116803 20.210069,7.0778175 18.42171,8.0161446 18.32411,7.4077983 18.28153,7.1424117 17.116781,6.3804612 16.211061,6.4233621 Z m 6.116939,9.0960856 c -0.394449,-0.02692 -1.009393,0.416062 -1.42782,1.065051 -0.248899,0.386048 -0.451935,0.563176 -0.515731,0.683679 -0.03069,0.05797 -0.04122,0.08888 -0.04496,0.101286 l -0.116789,0.264583 -0.267684,-0.0067 c 0,0 -0.762314,-0.222472 -1.904793,-0.221175 l 5.29e-4,0.0026 c -0.93316,0.12685 -1.416169,0.913698 -1.447457,1.378727 -0.01964,0.291991 -0.02721,0.593732 0.02946,0.841809 0.05667,0.248078 0.159948,0.432886 0.384473,0.564307 l -0.0021,0.0036 c 0.363196,0.234272 0.765969,0.568518 1.598869,0.751375 1.658477,0.364105 2.801438,0.309924 3.364135,0.03359 0.625071,-0.306966 0.971578,-2.376813 1.138432,-3.58066 0.166703,-1.202759 -0.221951,-1.584452 -0.556038,-1.784904 -0.06245,-0.05947 -0.141518,-0.09094 -0.232544,-0.09715 z m -8.452197,2.138371 c -0.279299,0.332402 -0.873123,0.929992 -1.665532,1.127579 0.181212,0.0335 0.746954,-0.0053 0.960409,0.02132 0.79061,0.09852 0.935685,0.168556 1.552516,0.35693 0.616831,0.188373 1.190423,0.264362 1.448334,0.285513 -0.07564,-0.331166 -0.05326,-0.388779 -0.03282,-0.692701 0.01581,-0.23498 0.09987,-0.489595 0.237195,-0.733289 -0.148275,0.02645 -0.305921,0.04403 -0.475424,0.05323 -0.378149,0.02052 -0.844278,-0.0187 -1.291394,-0.134358 -0.257199,-0.06653 -0.509159,-0.157085 -0.733288,-0.284221 z" sodipodi:nodetypes="ssssssssscsccssssscscccsssssssssccssscccsccssssscscccccssccssscsccscszcsscss"/>
  </g>
  </svg>