<svg xmlns:dc="http://purl.org/dc/elements/1.1/" xmlns:cc="http://creativecommons.org/ns#" xmlns:rdf="http://www.w3.org/1999/02/22-rdf-syntax-ns#" xmlns:svg="http://www.w3.org/2000/svg" xmlns="http://www.w3.org/2000/svg" xmlns:xlink="http://www.w3.org/1999/xlink" xmlns:sodipodi="http://sodipodi.sourceforge.net/DTD/sodipodi-0.dtd" xmlns:inkscape="http://www.inkscape.org/namespaces/inkscape" width="28.574999mm" height="28.574999mm" viewBox="0 0 28.574999 28.574999" version="1.1" id="svg8" inkscape:version="1.0.2-2 (e86c870879, 2021-01-15)" sodipodi:docname="icons.svg">
  <defs id="defs2"/>
  <sodipodi:namedview id="base" pagecolor="#ffffff" bordercolor="#666666" borderopacity="1.0" inkscape:pageopacity="0.0" inkscape:pageshadow="2" inkscape:zoom="7.9195959" inkscape:cx="37.539281" inkscape:cy="37.799789" inkscape:document-units="mm" inkscape:current-layer="layer19" inkscape:document-rotation="0" showgrid="false" inkscape:window-width="1920" inkscape:window-height="1057" inkscape:window-x="1672" inkscape:window-y="-8" inkscape:window-maximized="1"/>
  <metadata id="metadata5">
    <rdf:RDF>
      <cc:Work rdf:about="">
        <dc:format>image/svg+xml</dc:format>
        <dc:type rdf:resource="http://purl.org/dc/dcmitype/StillImage"/>
        <dc:title/>
      </cc:Work>
    </rdf:RDF>
  </metadata>
  <g inkscape:groupmode="layer" id="layer7" inkscape:label="[export] fistx2" style="display:inline">
    <path id="path870-1" style="display:inline;fill:unset;fill-opacity:1;stroke:none;stroke-width:0.189934px;stroke-linecap:butt;stroke-linejoin:miter;stroke-opacity:1" d="m 10.899643,3.9420464 c -0.04334,0.0021 -0.08584,0.0066 -0.127241,0.0141 -0.407436,0.07348 -1.1030848,0.74349 -1.4148618,1.031283 -0.311777,0.287792 -0.863386,-0.191751 -1.438974,-0.04785 -0.575587,0.143897 -1.175312,0.839532 -1.535054,0.983429 -0.359742,0.143897 -0.824019,-0.374106 -1.438974,-0.215902 -0.877643,0.225784 -1.545527,2.195761 -1.570667,3.081608 -0.02685,0.945953 0.281669,2.6959116 0.635464,3.2259136 0.400232,0.59957 0.685399,0.479927 1.19896,0.413627 0.421687,-0.05444 0.781325,-0.157802 0.727833,-0.744528 -0.05014,-0.230859 -0.08416,-0.508769 -0.10387,-0.820204 -0.03942,-0.622871 -0.02162,-1.3757876 0.05601,-2.1004056 l 0.427723,0.04489 c -0.07499,0.699889 -0.09204,1.4346746 -0.05453,2.0273246 0.01875,0.296326 0.05209,0.558001 0.09534,0.757141 0.04325,0.199139 0.108687,0.336737 0.131693,0.363175 0.142237,0.163458 0.262456,0.285188 0.433287,0.367256 0.170832,0.08207 0.405669,0.131529 0.794979,0.10795 0.492795,-0.02985 0.958291,-0.473559 1.168169,-0.70335 -0.158809,-0.200192 -0.202443,-0.465166 -0.230369,-0.756027 -0.02926,-0.304768 -0.02397,-0.638681 -0.0056,-0.928156 0.03403,-0.5350836 0.291949,-2.1901776 0.291949,-2.1901776 l 0.425869,0.06455 c 10e-7,0 -0.258695,1.706348 -0.287127,2.1534526 -0.01739,0.27351 -0.02175,0.590479 0.0041,0.859526 0.02584,0.269047 0.101488,0.489101 0.147274,0.54124 0.114466,0.130349 0.353788,0.250326 0.62656,0.320885 0.2727728,0.07056 0.5753328,0.09761 0.7949778,0.08569 0.447778,-0.0243 0.650775,-0.09383 0.915543,-0.330901 0.09402,-0.08419 0.197825,-0.287088 0.265239,-0.532706 0.06742,-0.245618 0.10566,-0.530125 0.124645,-0.771237 0.01314,-0.166881 0.02348,-0.6955586 0.02819,-1.1652016 0.0047,-0.469643 0.0056,-0.8918 0.0056,-0.8918 l 0.430319,0.0015 c 0,0 -8.62e-4,0.423124 -0.0056,0.894768 -0.0047,0.471644 -0.01126,0.9794556 -0.02819,1.1945076 -0.02051,0.260452 -0.062,0.565993 -0.140225,0.850995 -0.025,0.09107 -0.05496,0.17889 -0.08829,0.264499 0.767273,-0.0081 1.213124,0.126837 1.343266,0.161741 0.0055,-0.01116 0.0062,-0.01761 0.01261,-0.02968 0.06867,-0.129715 0.193022,-0.313931 0.43032,-0.577594 0.467252,-0.519167 0.775688,-0.755656 0.775688,-0.755656 l 0.327933,-0.186595 c 0.407705,-0.5276546 0.08766,-2.8353046 0.03969,-3.7226686 -0.04797,-0.887364 -0.695394,-1.534851 -1.00717,-1.702731 -0.311777,-0.16788 -1.595571,0.505708 -1.665635,0.069 -0.03057,-0.19051 -0.866695,-0.737486 -1.516877,-0.706689 z m 4.391115,6.5297296 c -0.28316,-0.01932 -0.724603,0.298675 -1.024977,0.764559 -0.178675,0.27713 -0.324427,0.404284 -0.370224,0.490788 -0.02203,0.04162 -0.02959,0.0638 -0.03227,0.07271 l -0.08384,0.189934 -0.19216,-0.0048 c 0,0 -0.547236,-0.159704 -1.367378,-0.158773 l 3.8e-4,0.0019 c -0.669879,0.09106 -1.016613,0.655909 -1.039073,0.989735 -0.0141,0.209609 -0.01953,0.426218 0.02115,0.604303 0.04068,0.178085 0.11482,0.310752 0.275998,0.405094 l -0.0015,0.0026 c 0.260724,0.168175 0.549859,0.408117 1.147766,0.539383 1.190557,0.261377 2.011045,0.222483 2.414983,0.02411 0.448715,-0.220359 0.697459,-1.706222 0.817237,-2.570418 0.119669,-0.863415 -0.15933,-1.137418 -0.399159,-1.281315 -0.04483,-0.04269 -0.10159,-0.06528 -0.166933,-0.06974 z m -6.0675068,1.535056 c -0.200498,0.238618 -0.626781,0.667605 -1.195621,0.809445 0.130085,0.02405 0.536209,-0.0038 0.68944,0.0153 0.567549,0.07072 0.671693,0.121 1.114492,0.256226 0.4427988,0.135226 0.8545588,0.189776 1.0397028,0.204959 -0.0543,-0.237731 -0.03823,-0.279089 -0.02356,-0.497263 0.01135,-0.168683 0.07169,-0.351462 0.170274,-0.5264 -0.106442,0.01899 -0.21961,0.03161 -0.34129,0.03821 -0.271458,0.01473 -0.606074,-0.01342 -0.9270418,-0.09645 -0.184633,-0.04776 -0.365505,-0.112765 -0.526399,-0.204031 z" sodipodi:nodetypes="ssssssssscsccssssscscccsssssssssccssscccsccssssscscccccssccssscsccscszcsscss"/>
    <path id="path971" style="display:inline;fill:unset;fill-opacity:1;stroke:none;stroke-width:0.189934px;stroke-linecap:butt;stroke-linejoin:miter;stroke-opacity:1" d="m 20.380103,14.539323 c -0.04334,0.0021 -0.08584,0.0066 -0.127241,0.0141 -0.407436,0.07348 -1.103085,0.74349 -1.414862,1.031283 -0.311777,0.287792 -0.863386,-0.191751 -1.438974,-0.04785 -0.575587,0.143897 -1.175312,0.839532 -1.535054,0.983429 -0.359742,0.143897 -0.824019,-0.374106 -1.438974,-0.215902 -0.877643,0.225784 -1.545527,2.195761 -1.570667,3.081608 -0.02685,0.945953 0.281669,2.695911 0.635464,3.225913 0.400232,0.59957 0.685399,0.479927 1.19896,0.413627 0.421687,-0.05444 0.781325,-0.157802 0.727833,-0.744528 -0.05014,-0.230859 -0.08416,-0.508768 -0.10387,-0.820203 -0.03942,-0.622871 -0.02162,-1.375788 0.05601,-2.100406 l 0.427723,0.04489 c -0.07499,0.699889 -0.09204,1.434675 -0.05453,2.027325 0.01875,0.296326 0.05209,0.558 0.09534,0.75714 0.04325,0.199139 0.108687,0.336737 0.131693,0.363175 0.142237,0.163458 0.262456,0.285188 0.433287,0.367256 0.170832,0.08207 0.405669,0.131529 0.794979,0.10795 0.492795,-0.02985 0.958291,-0.473559 1.168169,-0.70335 -0.158809,-0.200192 -0.202443,-0.465165 -0.230369,-0.756026 -0.02926,-0.304768 -0.02397,-0.638681 -0.0056,-0.928156 0.03403,-0.535084 0.291949,-2.190178 0.291949,-2.190178 l 0.425869,0.06455 c 10e-7,0 -0.258695,1.706348 -0.287127,2.153453 -0.01739,0.27351 -0.02175,0.590479 0.0041,0.859526 0.02584,0.269047 0.101488,0.4891 0.147274,0.541239 0.114466,0.130349 0.353788,0.250326 0.62656,0.320885 0.272773,0.07056 0.575333,0.09761 0.794978,0.08569 0.447778,-0.0243 0.650774,-0.09383 0.915543,-0.330901 0.09402,-0.08419 0.197824,-0.287087 0.265239,-0.532705 0.06742,-0.245618 0.10566,-0.530125 0.124645,-0.771237 0.01314,-0.166881 0.02348,-0.695559 0.02819,-1.165202 0.0047,-0.469643 0.0056,-0.8918 0.0056,-0.8918 l 0.430319,0.0015 c 0,0 -8.62e-4,0.423124 -0.0056,0.894768 -0.0047,0.471644 -0.01126,0.979456 -0.02819,1.194508 -0.02051,0.260452 -0.062,0.565993 -0.140225,0.850995 -0.025,0.09107 -0.05496,0.17889 -0.08829,0.264498 0.767273,-0.0081 1.213124,0.126837 1.343266,0.161741 0.0055,-0.01116 0.0062,-0.01761 0.01261,-0.02968 0.06867,-0.129715 0.193022,-0.31393 0.430319,-0.577593 0.467252,-0.519167 0.775689,-0.755656 0.775689,-0.755656 l 0.327932,-0.186595 c 0.407706,-0.527655 0.08766,-2.835305 0.03969,-3.722669 -0.04797,-0.887364 -0.695394,-1.534851 -1.00717,-1.702731 -0.311777,-0.16788 -1.595571,0.505708 -1.665634,0.069 -0.03057,-0.19051 -0.866695,-0.737486 -1.516877,-0.706689 z m 4.391115,6.52973 c -0.28316,-0.01932 -0.724604,0.298675 -1.024977,0.764559 -0.178675,0.277129 -0.324427,0.404283 -0.370224,0.490787 -0.02203,0.04162 -0.02959,0.0638 -0.03227,0.07271 l -0.08384,0.189934 -0.19216,-0.0048 c 0,0 -0.547236,-0.159704 -1.367378,-0.158773 l 3.8e-4,0.0019 c -0.669879,0.09106 -1.016613,0.655909 -1.039073,0.989735 -0.0141,0.209609 -0.01953,0.426218 0.02115,0.604303 0.04068,0.178085 0.11482,0.310752 0.275998,0.405094 l -0.0015,0.0026 c 0.260724,0.168175 0.549859,0.408117 1.147766,0.539383 1.190557,0.261377 2.011045,0.222483 2.414983,0.02411 0.448715,-0.220359 0.697459,-1.706222 0.817237,-2.570418 0.119669,-0.863414 -0.15933,-1.137417 -0.399159,-1.281314 -0.04483,-0.04269 -0.10159,-0.06528 -0.166934,-0.06974 z m -6.067507,1.535055 c -0.200498,0.238618 -0.626781,0.667605 -1.195621,0.809445 0.130085,0.02405 0.536209,-0.0038 0.68944,0.0153 0.567549,0.07072 0.671693,0.121 1.114492,0.256226 0.442799,0.135226 0.854559,0.189776 1.039703,0.204959 -0.0543,-0.237731 -0.03823,-0.279089 -0.02356,-0.497263 0.01135,-0.168683 0.07169,-0.351462 0.170273,-0.5264 -0.106441,0.01899 -0.219609,0.03161 -0.341289,0.03821 -0.271458,0.01473 -0.606074,-0.01342 -0.927042,-0.09645 -0.184633,-0.04776 -0.365505,-0.112765 -0.526399,-0.204031 z" sodipodi:nodetypes="ssssssssscsccssssscscccsssssssssccssscccsccssssscscccccssccssscsccscszcsscss"/>
  </g>
  </svg>