<svg xmlns:dc="http://purl.org/dc/elements/1.1/" xmlns:cc="http://creativecommons.org/ns#" xmlns:rdf="http://www.w3.org/1999/02/22-rdf-syntax-ns#" xmlns:svg="http://www.w3.org/2000/svg" xmlns="http://www.w3.org/2000/svg" xmlns:xlink="http://www.w3.org/1999/xlink" xmlns:sodipodi="http://sodipodi.sourceforge.net/DTD/sodipodi-0.dtd" xmlns:inkscape="http://www.inkscape.org/namespaces/inkscape" width="28.574999mm" height="28.574999mm" viewBox="0 0 28.574999 28.574999" version="1.1" id="svg8" inkscape:version="1.0.2-2 (e86c870879, 2021-01-15)" sodipodi:docname="icons.svg">
  <defs id="defs2"/>
  <sodipodi:namedview id="base" pagecolor="#ffffff" bordercolor="#666666" borderopacity="1.0" inkscape:pageopacity="0.0" inkscape:pageshadow="2" inkscape:zoom="7.9195959" inkscape:cx="37.539281" inkscape:cy="37.799789" inkscape:document-units="mm" inkscape:current-layer="layer19" inkscape:document-rotation="0" showgrid="false" inkscape:window-width="1920" inkscape:window-height="1057" inkscape:window-x="1672" inkscape:window-y="-8" inkscape:window-maximized="1"/>
  <metadata id="metadata5">
    <rdf:RDF>
      <cc:Work rdf:about="">
        <dc:format>image/svg+xml</dc:format>
        <dc:type rdf:resource="http://purl.org/dc/dcmitype/StillImage"/>
        <dc:title/>
      </cc:Work>
    </rdf:RDF>
  </metadata>
  <g inkscape:groupmode="layer" id="layer18" inkscape:label="[export] kittypryde" style="display:inline">
    <path id="rect1303" style="fill:unset;fill-opacity:1;stroke:none;stroke-width:4.88202;stroke-linecap:square;stroke-linejoin:miter;stroke-miterlimit:4;stroke-dasharray:none;stroke-opacity:0.467742" d="m 39.808594,22.861328 v 9.337891 H 38.041016 26.248047 v 8.585937 H 14.394531 v 8.333985 h 11.853516 v 8.333984 H 14.646484 v 9.722656 h 11.601563 v 8.794922 h 11.792969 0.714843 v 8.564453 h 0.88086 26.068359 0.88086 V 75.970703 H 67.300781 79.09375 V 67.175781 H 90.695312 V 57.453125 H 79.09375 V 49.119141 H 90.947266 V 40.785156 H 79.09375 V 32.199219 H 67.300781 65.533203 v -9.337891 h -0.02539 -25.673828 z m 13.794922,6.269531 c 1.837331,0.05441 3.359935,0.623883 4.230468,3.101563 1.160716,3.303571 1.192181,5.497554 2.210938,7.544922 1.385178,2.783754 4.586156,4.703408 6.294922,5.9375 1.845396,1.332771 4.344546,4.037031 4.802734,6.064453 0.437008,1.933701 1.027066,5.930242 0.04492,6.644531 -0.98214,0.714285 -2.615512,1.755022 -3.597656,0.683594 -0.982139,-1.071432 -1.765259,-2.304532 -0.98242,-3.482422 0.398438,-0.599509 0.875835,-0.950894 0.697266,-3.09375 -0.178583,-2.142856 -2.751394,-2.933875 -3.91211,-3.916016 -0.782211,-1.061495 -3.385404,-2.367288 -3.708984,-1.914062 -0.323566,0.453226 0.1836,1.296317 -0.519532,2.222656 -0.445143,0.586466 -1.128094,1.233548 -0.861328,2.392578 0.170004,0.738633 1.161548,2.70201 0.447266,3.773438 -0.983074,1.47462 -2.760805,4.599621 -5.253906,4.527344 -2.493101,-0.07227 -4.757297,-2.722698 -5.416016,-3.560547 -0.658722,-0.837854 -0.309468,-2.43598 -0.06641,-3.177735 0.243061,-0.741755 0.75044,-2.121124 0.08398,-2.941406 -0.641937,-0.790106 -1.258141,-1.086218 -1.689453,-2.021484 -0.431312,-0.935267 -0.186613,-3.132004 -0.589844,-3.646485 -0.41712,-0.53221 -1.779857,0.5 -3.11914,0.5 -1.339287,0 -2.609934,-0.03828 -3.324219,-0.841797 -0.714289,-0.803573 -0.132454,-2.376133 0.232422,-2.914062 0.356674,-0.525823 1.506223,-0.745633 2,-0.746094 0.520622,-4.87e-4 1.788393,0.602972 2.386719,0.205078 0.831125,-0.552733 0.706104,-2.688954 1.732421,-5.330078 1.026324,-2.641123 3.268692,-5.766741 5.947266,-5.945312 0.669643,-0.04464 1.317244,-0.08454 1.929688,-0.06641 z m -15.3125,16.736329 c 0,0 1.31504,1.170803 1.0625,2.054687 -0.252548,0.883884 -1.466437,1.483368 -1.978516,2.822266 -0.50431,1.318582 -1.736328,2.321223 -1.736328,0.86914 0,-1.452094 -0.157471,-3.883061 0.158203,-4.830078 0.315674,-0.947017 2.494141,-0.916016 2.494141,-0.916015 z m 7.601562,12.123046 c 0.937501,0.08927 2.36663,0.759489 2.902344,1.964844 0.535714,1.205356 2.231586,1.249441 1.785156,2.410156 -0.44643,1.160716 -1.696704,3.794644 -2.232422,4.6875 -0.535718,0.892857 -1.617187,2.367189 -1.617187,3.617188 0.140069,1.92791 0.384916,3.607659 -0.591797,5.234375 -0.513392,0.658481 -1.138392,1.517578 -1.71875,1.517578 -0.580358,0 -1.517846,-0.858812 -1.875,-1.082031 -0.357165,-0.223219 -1.083151,-0.916292 -1.105469,-1.976563 -0.0223,-1.060271 0.26223,-1.35009 0.300781,-3.21289 0.03855,-1.862801 -0.147044,-6.500217 1.072266,-9.140625 1.219374,-2.640409 2.142578,-4.108812 3.080078,-4.019532 z" transform="scale(0.26458333)"/>
  </g>
  </svg>