<svg xmlns:dc="http://purl.org/dc/elements/1.1/" xmlns:cc="http://creativecommons.org/ns#" xmlns:rdf="http://www.w3.org/1999/02/22-rdf-syntax-ns#" xmlns:svg="http://www.w3.org/2000/svg" xmlns="http://www.w3.org/2000/svg" xmlns:xlink="http://www.w3.org/1999/xlink" xmlns:sodipodi="http://sodipodi.sourceforge.net/DTD/sodipodi-0.dtd" xmlns:inkscape="http://www.inkscape.org/namespaces/inkscape" width="28.574999mm" height="28.574999mm" viewBox="0 0 28.574999 28.574999" version="1.1" id="svg8" inkscape:version="1.0.2-2 (e86c870879, 2021-01-15)" sodipodi:docname="icons.svg">
  <defs id="defs2"/>
  <sodipodi:namedview id="base" pagecolor="#ffffff" bordercolor="#666666" borderopacity="1.0" inkscape:pageopacity="0.0" inkscape:pageshadow="2" inkscape:zoom="7.9195959" inkscape:cx="37.539281" inkscape:cy="37.799789" inkscape:document-units="mm" inkscape:current-layer="layer19" inkscape:document-rotation="0" showgrid="false" inkscape:window-width="1920" inkscape:window-height="1057" inkscape:window-x="1672" inkscape:window-y="-8" inkscape:window-maximized="1"/>
  <metadata id="metadata5">
    <rdf:RDF>
      <cc:Work rdf:about="">
        <dc:format>image/svg+xml</dc:format>
        <dc:type rdf:resource="http://purl.org/dc/dcmitype/StillImage"/>
        <dc:title/>
      </cc:Work>
    </rdf:RDF>
  </metadata>
  <g inkscape:groupmode="layer" id="layer5" inkscape:label="[export] maskx2" style="display:inline">
    <path id="path997-8" style="display:inline;fill:unset;fill-opacity:1;stroke:none;stroke-width:0.190155px;stroke-linecap:butt;stroke-linejoin:miter;stroke-opacity:1" d="m 11.596528,14.557595 c -0.100644,-0.02356 -0.395409,0.35458 -0.532585,0.428593 -0.316855,0.17096 -0.685427,0.297964 -0.613178,0.365084 0.135559,0.125931 0.829236,-0.07376 1.222272,0.03417 0.274893,0.07549 0.735577,0.131136 0.747251,0.415965 0.02365,0.576824 -0.890058,0.722156 -1.439166,0.963406 -0.454525,0.199697 -0.97029,0.568263 -1.0313725,1.056627 -0.07505,0.60009 0.7331595,0.991832 0.9084405,1.57064 0.154492,0.510167 -0.05208,1.085533 0.101758,1.595896 0.199277,0.661102 0.486474,1.373057 1.032486,1.795708 0.648662,0.502109 1.555062,0.589068 2.372861,0.652919 0.766358,0.05983 1.553136,-0.04553 2.291523,-0.259236 0.387094,-0.112033 0.97406,-0.475446 1.128308,-0.477247 0.146778,-0.0017 0.751969,0.38597 1.149475,0.501015 0.738388,0.213706 1.525166,0.319439 2.291524,0.259608 0.817802,-0.06385 1.724198,-0.150809 2.372861,-0.652917 0.546014,-0.42265 0.901123,-0.896912 1.100399,-1.558014 0.15384,-0.510364 0.01518,-1.153642 0.169674,-1.663809 0.17528,-0.578807 0.592998,-0.630987 0.517942,-1.231077 -0.06107,-0.488364 -0.407066,-0.789019 -0.86159,-0.988714 -0.549108,-0.241251 -1.71382,0.208113 -1.719307,-0.369169 -0.0053,-0.556133 1.28326,-0.716301 1.558689,-0.740258 0.494061,-0.04297 0.50579,-0.618895 0.559768,-0.7253 0.04462,-0.08795 -0.04037,-0.472694 -0.397082,-0.521526 -0.102936,-0.01409 -0.168763,0.514786 -0.514575,0.615875 -0.951847,0.278247 -1.036605,0.234693 -1.626851,0.734421 -0.538047,0.455533 -0.510222,0.77834 -0.04652,1.332575 0.402243,0.480786 1.102713,0.08696 2.00332,0.432892 0.308114,0.118352 0.370131,0.471262 0.08473,0.645541 -1.058229,0.646209 -2.701825,0.24427 -3.931244,0.405407 -0.716664,0.09393 -1.446315,0.128859 -2.146679,0.307518 -0.154119,0.03931 -0.328896,0.102547 -0.500273,0.09397 -0.203204,-0.01019 -0.420171,-0.07029 -0.607607,-0.118104 -0.700364,-0.178659 -1.429644,-0.213213 -2.146307,-0.307145 -1.229422,-0.161138 -2.635695,0.206472 -3.693925,-0.439736 -0.2854,-0.174279 -0.629054,-0.509078 -0.56044,-0.83193 0.102275,-0.481229 0.69048,-0.607626 1.290236,-0.82339 0.655081,-0.235667 1.114692,-0.953783 1.065541,-1.2141 -0.140728,-0.745322 -0.859314,-1.112709 -1.600353,-1.286148 z m 2.732002,5.515257 c 1.319683,0.02252 2.006649,0.472377 2.054571,1.052541 -0.05084,0.775662 -0.587174,1.185348 -2.020403,1.214099 -1.429879,-0.132447 -1.821134,-0.834026 -1.815021,-1.282066 0.0059,-0.44803 0.945798,-0.972132 1.780853,-0.984574 z m 6.934367,0.02377 c 0.835053,0.01244 1.774959,0.536916 1.780851,0.984946 0.0061,0.448039 -0.38477,1.149618 -1.814649,1.282064 -1.433229,-0.02875 -1.969942,-0.438435 -2.020776,-1.214098 0.04792,-0.580163 0.734889,-1.030396 2.054574,-1.052912 z" sodipodi:nodetypes="ssssssssssssssssssssssssssssssssssssssscccccccccc"/>
    <path id="path1080" style="display:inline;fill:unset;fill-opacity:1;stroke:none;stroke-width:0.190155px;stroke-linecap:butt;stroke-linejoin:miter;stroke-opacity:1" d="m 5.1236856,4.9192006 c -0.100644,-0.02356 -0.395409,0.35458 -0.532585,0.428593 -0.316855,0.17096 -0.685427,0.297964 -0.613178,0.365084 0.135559,0.125931 0.829236,-0.07376 1.222272,0.03417 0.274893,0.07549 0.735577,0.131136 0.747251,0.415965 0.02365,0.576824 -0.890058,0.722156 -1.439166,0.963406 -0.454525,0.199697 -0.97029,0.568263 -1.031372,1.056627 -0.07505,0.60009 0.733159,0.991832 0.90844,1.57064 0.154492,0.5101674 -0.05208,1.0855334 0.101758,1.5958964 0.199277,0.661102 0.486474,1.373057 1.032486,1.795708 0.648662,0.502109 1.555062,0.589068 2.372861,0.652919 0.766358,0.05983 1.553136,-0.04553 2.2915234,-0.259236 0.387094,-0.112033 0.974059,-0.475446 1.128307,-0.477247 0.146779,-0.0017 0.75197,0.38597 1.149476,0.501015 0.738388,0.213706 1.525166,0.319439 2.291524,0.259608 0.817802,-0.06385 1.724198,-0.150809 2.372861,-0.652917 0.546014,-0.42265 0.901123,-0.896912 1.100399,-1.558014 0.15384,-0.510364 0.01518,-1.153642 0.169674,-1.6638094 0.17528,-0.578807 0.592998,-0.630987 0.517942,-1.231077 -0.06107,-0.488364 -0.407066,-0.789019 -0.86159,-0.988714 -0.549108,-0.241251 -1.71382,0.208113 -1.719307,-0.369169 -0.0053,-0.556133 1.28326,-0.716301 1.558689,-0.740258 0.494061,-0.04297 0.50579,-0.618895 0.559768,-0.7253 0.04462,-0.08795 -0.04037,-0.472694 -0.397082,-0.521526 -0.102936,-0.01409 -0.168763,0.514786 -0.514575,0.615875 -0.951847,0.278247 -1.036605,0.234693 -1.626851,0.734421 -0.538047,0.455533 -0.510222,0.77834 -0.04652,1.332575 0.402243,0.480786 1.102713,0.08696 2.00332,0.432892 0.308114,0.118352 0.370131,0.471262 0.08473,0.645541 -1.058229,0.646209 -2.701825,0.24427 -3.931244,0.405407 -0.716664,0.09393 -1.446315,0.128859 -2.146679,0.307518 -0.154119,0.03931 -0.328896,0.102547 -0.500273,0.09397 -0.203205,-0.01019 -0.420172,-0.07029 -0.607608,-0.118104 -0.700363,-0.178659 -1.4296434,-0.213213 -2.1463064,-0.307145 -1.229422,-0.161138 -2.635695,0.206472 -3.693925,-0.439736 -0.2854,-0.174279 -0.629054,-0.509078 -0.56044,-0.83193 0.102275,-0.481229 0.69048,-0.607626 1.290236,-0.82339 0.655081,-0.235667 1.114692,-0.953783 1.065541,-1.2141 -0.140728,-0.745322 -0.859314,-1.112709 -1.600353,-1.286148 z m 2.732002,5.5152574 c 1.319683,0.02252 2.006649,0.472377 2.054572,1.052541 -0.05084,0.775662 -0.587175,1.185348 -2.020403,1.214099 -1.429879,-0.132447 -1.821134,-0.834026 -1.815021,-1.282066 0.0059,-0.44803 0.945798,-0.972132 1.780852,-0.984574 z m 6.9343684,0.02377 c 0.835052,0.01244 1.774958,0.536916 1.780851,0.984946 0.0061,0.448039 -0.38477,1.149618 -1.814649,1.282064 -1.433229,-0.02875 -1.969942,-0.438435 -2.020776,-1.214098 0.04792,-0.580163 0.734889,-1.030396 2.054574,-1.052912 z" sodipodi:nodetypes="ssssssssssssssssssssssssssssssssssssssscccccccccc"/>
  </g>
  </svg>