<svg xmlns:dc="http://purl.org/dc/elements/1.1/" xmlns:cc="http://creativecommons.org/ns#" xmlns:rdf="http://www.w3.org/1999/02/22-rdf-syntax-ns#" xmlns:svg="http://www.w3.org/2000/svg" xmlns="http://www.w3.org/2000/svg" xmlns:xlink="http://www.w3.org/1999/xlink" xmlns:sodipodi="http://sodipodi.sourceforge.net/DTD/sodipodi-0.dtd" xmlns:inkscape="http://www.inkscape.org/namespaces/inkscape" width="28.574999mm" height="28.574999mm" viewBox="0 0 28.574999 28.574999" version="1.1" id="svg8" inkscape:version="1.0.2-2 (e86c870879, 2021-01-15)" sodipodi:docname="icons.svg">
  <defs id="defs2"/>
  <sodipodi:namedview id="base" pagecolor="#ffffff" bordercolor="#666666" borderopacity="1.0" inkscape:pageopacity="0.0" inkscape:pageshadow="2" inkscape:zoom="7.9195959" inkscape:cx="37.539281" inkscape:cy="37.799789" inkscape:document-units="mm" inkscape:current-layer="layer19" inkscape:document-rotation="0" showgrid="false" inkscape:window-width="1920" inkscape:window-height="1057" inkscape:window-x="1672" inkscape:window-y="-8" inkscape:window-maximized="1"/>
  <metadata id="metadata5">
    <rdf:RDF>
      <cc:Work rdf:about="">
        <dc:format>image/svg+xml</dc:format>
        <dc:type rdf:resource="http://purl.org/dc/dcmitype/StillImage"/>
        <dc:title/>
      </cc:Work>
    </rdf:RDF>
  </metadata>
  <g inkscape:groupmode="layer" id="layer3" inkscape:label="[export] shieldx2" style="display:inline" transform="translate(-13.52544,-45.291531)">
    <g id="g936" transform="translate(-34.902332,0.63875183)">
      <g id="g893" transform="matrix(0.71646109,0,0,0.71646109,37.159416,12.475789)">
        <path style="color:#000000;font-style:normal;font-variant:normal;font-weight:normal;font-stretch:normal;font-size:medium;line-height:normal;font-family:sans-serif;font-variant-ligatures:normal;font-variant-position:normal;font-variant-caps:normal;font-variant-numeric:normal;font-variant-alternates:normal;font-variant-east-asian:normal;font-feature-settings:normal;font-variation-settings:normal;text-indent:0;text-align:start;text-decoration:none;text-decoration-line:none;text-decoration-style:solid;text-decoration-color:#000000;letter-spacing:normal;word-spacing:normal;text-transform:none;writing-mode:lr-tb;direction:ltr;text-orientation:mixed;dominant-baseline:auto;baseline-shift:baseline;text-anchor:start;white-space:normal;shape-padding:0;shape-margin:0;inline-size:0;clip-rule:nonzero;display:inline;overflow:visible;visibility:visible;opacity:1;isolation:auto;mix-blend-mode:normal;color-interpolation:sRGB;color-interpolation-filters:linearRGB;solid-color:#000000;solid-opacity:1;vector-effect:none;fill:unset;fill-opacity:1;fill-rule:nonzero;stroke:none;stroke-linecap:butt;stroke-linejoin:miter;stroke-miterlimit:4;stroke-dasharray:none;stroke-dashoffset:0;stroke-opacity:1;color-rendering:auto;image-rendering:auto;shape-rendering:auto;text-rendering:auto;enable-background:accumulate;stop-color:#000000;stop-opacity:1" d="m 28.210938,49.623047 -0.476563,0.375 c -1.708828,1.347601 -5.257133,2.803886 -7.361328,2.791015 l -0.720703,-0.0039 -0.04883,0.71875 c -0.214054,3.074806 0.991956,6.468799 2.646484,9.464844 1.654528,2.996045 3.754395,5.579382 5.574219,6.996094 l 0.521484,0.40625 0.478516,-0.455078 c 1.490268,-1.415559 3.568945,-3.995441 5.265625,-6.980469 1.69668,-2.985028 3.026554,-6.357275 2.791015,-9.417969 l -0.05469,-0.722656 -0.726563,0.01563 C 33.958969,52.854655 30.391234,51.350623 28.685547,50 Z m -0.0039,1.847656 c 1.868996,1.354876 4.593023,2.489472 7.064453,2.693359 0.02203,2.429724 -1.001935,5.348633 -2.515625,8.011719 -1.448195,2.54786 -3.181152,4.70558 -4.492187,6.060547 -1.477065,-1.30429 -3.256621,-3.450539 -4.669922,-6.009766 -1.467075,-2.656601 -2.409409,-5.595381 -2.386719,-8.083984 2.420721,-0.222019 5.124212,-1.322241 7,-2.671875 z" id="path889"/>
        <path style="fill:unset;fill-opacity:1;stroke:none;stroke-width:0.160812px;stroke-linecap:butt;stroke-linejoin:miter;stroke-opacity:1" d="m 22.562542,55.393514 c 1.652588,-0.174441 4.404598,-1.433162 5.625463,-2.501166 1.216225,1.068294 4.121585,2.362196 5.75083,2.408802 -0.122394,3.981187 -3.866646,9.174291 -5.695038,11.100816 -2.185146,-1.887011 -5.652989,-7.034114 -5.681255,-11.008452 z" id="path891" sodipodi:nodetypes="ccccc"/>
      </g>
      <g id="g899" transform="matrix(0.71646109,0,0,0.71646109,48.026232,20.933005)">
        <path style="color:#000000;font-style:normal;font-variant:normal;font-weight:normal;font-stretch:normal;font-size:medium;line-height:normal;font-family:sans-serif;font-variant-ligatures:normal;font-variant-position:normal;font-variant-caps:normal;font-variant-numeric:normal;font-variant-alternates:normal;font-variant-east-asian:normal;font-feature-settings:normal;font-variation-settings:normal;text-indent:0;text-align:start;text-decoration:none;text-decoration-line:none;text-decoration-style:solid;text-decoration-color:#000000;letter-spacing:normal;word-spacing:normal;text-transform:none;writing-mode:lr-tb;direction:ltr;text-orientation:mixed;dominant-baseline:auto;baseline-shift:baseline;text-anchor:start;white-space:normal;shape-padding:0;shape-margin:0;inline-size:0;clip-rule:nonzero;display:inline;overflow:visible;visibility:visible;opacity:1;isolation:auto;mix-blend-mode:normal;color-interpolation:sRGB;color-interpolation-filters:linearRGB;solid-color:#000000;solid-opacity:1;vector-effect:none;fill:unset;fill-opacity:1;fill-rule:nonzero;stroke:none;stroke-linecap:butt;stroke-linejoin:miter;stroke-miterlimit:4;stroke-dasharray:none;stroke-dashoffset:0;stroke-opacity:1;color-rendering:auto;image-rendering:auto;shape-rendering:auto;text-rendering:auto;enable-background:accumulate;stop-color:#000000;stop-opacity:1" d="m 28.210938,49.623047 -0.476563,0.375 c -1.708828,1.347601 -5.257133,2.803886 -7.361328,2.791015 l -0.720703,-0.0039 -0.04883,0.71875 c -0.214054,3.074806 0.991956,6.468799 2.646484,9.464844 1.654528,2.996045 3.754395,5.579382 5.574219,6.996094 l 0.521484,0.40625 0.478516,-0.455078 c 1.490268,-1.415559 3.568945,-3.995441 5.265625,-6.980469 1.69668,-2.985028 3.026554,-6.357275 2.791015,-9.417969 l -0.05469,-0.722656 -0.726563,0.01563 C 33.958969,52.854655 30.391234,51.350623 28.685547,50 Z m -0.0039,1.847656 c 1.868996,1.354876 4.593023,2.489472 7.064453,2.693359 0.02203,2.429724 -1.001935,5.348633 -2.515625,8.011719 -1.448195,2.54786 -3.181152,4.70558 -4.492187,6.060547 -1.477065,-1.30429 -3.256621,-3.450539 -4.669922,-6.009766 -1.467075,-2.656601 -2.409409,-5.595381 -2.386719,-8.083984 2.420721,-0.222019 5.124212,-1.322241 7,-2.671875 z" id="path895"/>
        <path style="fill:unset;fill-opacity:1;stroke:none;stroke-width:0.160812px;stroke-linecap:butt;stroke-linejoin:miter;stroke-opacity:1" d="m 22.562542,55.393514 c 1.652588,-0.174441 4.404598,-1.433162 5.625463,-2.501166 1.216225,1.068294 4.121585,2.362196 5.75083,2.408802 -0.122394,3.981187 -3.866646,9.174291 -5.695038,11.100816 -2.185146,-1.887011 -5.652989,-7.034114 -5.681255,-11.008452 z" id="path897" sodipodi:nodetypes="ccccc"/>
      </g>
    </g>
  </g>
  </svg>