<svg xmlns:dc="http://purl.org/dc/elements/1.1/" xmlns:cc="http://creativecommons.org/ns#" xmlns:rdf="http://www.w3.org/1999/02/22-rdf-syntax-ns#" xmlns:svg="http://www.w3.org/2000/svg" xmlns="http://www.w3.org/2000/svg" xmlns:xlink="http://www.w3.org/1999/xlink" xmlns:sodipodi="http://sodipodi.sourceforge.net/DTD/sodipodi-0.dtd" xmlns:inkscape="http://www.inkscape.org/namespaces/inkscape" width="28.574999mm" height="28.574999mm" viewBox="0 0 28.574999 28.574999" version="1.1" id="svg8" inkscape:version="1.0.2-2 (e86c870879, 2021-01-15)" sodipodi:docname="icons.svg">
  <defs id="defs2"/>
  <sodipodi:namedview id="base" pagecolor="#ffffff" bordercolor="#666666" borderopacity="1.0" inkscape:pageopacity="0.0" inkscape:pageshadow="2" inkscape:zoom="7.9195959" inkscape:cx="37.539281" inkscape:cy="37.799789" inkscape:document-units="mm" inkscape:current-layer="layer19" inkscape:document-rotation="0" showgrid="false" inkscape:window-width="1920" inkscape:window-height="1057" inkscape:window-x="1672" inkscape:window-y="-8" inkscape:window-maximized="1"/>
  <metadata id="metadata5">
    <rdf:RDF>
      <cc:Work rdf:about="">
        <dc:format>image/svg+xml</dc:format>
        <dc:type rdf:resource="http://purl.org/dc/dcmitype/StillImage"/>
        <dc:title/>
      </cc:Work>
    </rdf:RDF>
  </metadata>
  <g inkscape:groupmode="layer" id="layer12" inkscape:label="[export] wild" style="display:inline">
    <g aria-label="?" id="text1467" style="font-style:normal;font-weight:normal;font-size:20.7082px;line-height:1.25;font-family:sans-serif;display:inline;fill:unset;fill-opacity:1;stroke:none;stroke-width:0.517707">
      <path d="m 12.370303,16.943075 q 0.05056,-0.84936 0.091,-1.213371 0.04045,-0.364011 0.111226,-0.626908 0.07078,-0.273009 0.171894,-0.475237 0.111226,-0.21234 0.303343,-0.465126 0.202228,-0.262897 0.505571,-0.586463 0.303343,-0.323565 0.839248,-0.869582 l 0.333677,-0.343789 q 0.171895,-0.161783 0.303343,-0.333677 0.14156,-0.171894 0.21234,-0.293231 0.07078,-0.131449 0.101114,-0.232563 0.03034,-0.111226 0.03034,-0.222451 0,-0.515683 -0.556129,-0.77858 -0.55613,-0.262897 -1.577384,-0.262897 -1.425711,0 -3.2963251,0.606685 L 10.257015,9.2685028 q 0.05056,-0.2730085 0.121337,-0.6673541 0.07078,-0.404457 0.161783,-1.0414769 2.224514,-0.3235656 4.074905,-0.3235656 1.223482,0 2.214402,0.1921171 1.001031,0.1820057 1.739165,0.6370198 0.748246,0.4550142 1.142591,1.0819226 0.394346,0.6269084 0.394346,1.3448193 0,0.303343 -0.06067,0.616797 -0.06067,0.313455 -0.171894,0.596575 -0.111225,0.283119 -0.333677,0.637019 -0.21234,0.343789 -0.505571,0.697689 -0.293231,0.3539 -0.485349,0.546017 -0.182005,0.182005 -0.707799,0.677465 -0.515683,0.49546 -0.788692,0.77858 -0.273008,0.28312 -0.444902,0.535906 -0.171895,0.252785 -0.273009,0.546017 -0.091,0.28312 -0.171894,0.829137 -1.021254,-0.03034 -1.84028,-0.03034 -0.798802,0 -1.951505,0.02022 z m -0.465125,4.358025 0.101114,-1.213371 0.131448,-1.638051 q 0.01011,-0.111226 0.03033,-0.546017 1.284151,0.02022 2.103176,0.02022 0.879694,0 2.062731,-0.02022 -0.101114,1.152702 -0.131448,1.961616 -0.03034,0.808914 -0.07078,1.435823 -1.365043,-0.02022 -2.042508,-0.02022 -0.717912,0 -2.184068,0.02022 z" style="font-style:normal;font-variant:normal;font-weight:normal;font-stretch:normal;font-family:'Eras Bold ITC';-inkscape-font-specification:'Eras Bold ITC';fill:unset;fill-opacity:1;stroke-width:0.517707" id="path892"/>
    </g>
  </g>
  </svg>