<?xml version="1.0" encoding="UTF-8" standalone="no"?>
<svg
   xmlns:dc="http://purl.org/dc/elements/1.1/"
   xmlns:cc="http://creativecommons.org/ns#"
   xmlns:rdf="http://www.w3.org/1999/02/22-rdf-syntax-ns#"
   xmlns:svg="http://www.w3.org/2000/svg"
   xmlns="http://www.w3.org/2000/svg"
   xmlns:sodipodi="http://sodipodi.sourceforge.net/DTD/sodipodi-0.dtd"
   xmlns:inkscape="http://www.inkscape.org/namespaces/inkscape"
   width="28.574999mm"
   height="28.574999mm"
   viewBox="0 0 28.574999 28.574999"
   version="1.1"
   id="svg8"
   inkscape:version="1.0.2-2 (e86c870879, 2021-01-15)"
   sodipodi:docname="favicon.svg"
   inkscape:export-filename="C:\Users\alexm\OneDrive\Documents\git\mmdm\mmdm-client\public\img\mask.png"
   inkscape:export-xdpi="170.67"
   inkscape:export-ydpi="170.67">
  <defs
     id="defs2">
    <filter
       style="color-interpolation-filters:sRGB;"
       inkscape:label="Drop Shadow"
       id="filter1105">
      <feFlood
         flood-opacity="0.498039"
         flood-color="rgb(0,0,0)"
         result="flood"
         id="feFlood1095" />
      <feComposite
         in="flood"
         in2="SourceGraphic"
         operator="in"
         result="composite1"
         id="feComposite1097" />
      <feGaussianBlur
         in="composite1"
         stdDeviation="0.598802"
         result="blur"
         id="feGaussianBlur1099" />
      <feOffset
         dx="0.4"
         dy="1.4"
         result="offset"
         id="feOffset1101" />
      <feComposite
         in="SourceGraphic"
         in2="offset"
         operator="over"
         result="composite2"
         id="feComposite1103" />
    </filter>
  </defs>
  <sodipodi:namedview
     id="base"
     pagecolor="#ffffff"
     bordercolor="#666666"
     borderopacity="1.0"
     inkscape:pageopacity="0.0"
     inkscape:pageshadow="2"
     inkscape:zoom="5.6"
     inkscape:cx="49.591387"
     inkscape:cy="35.621739"
     inkscape:document-units="mm"
     inkscape:current-layer="layer4"
     inkscape:document-rotation="0"
     showgrid="false"
     inkscape:window-width="1680"
     inkscape:window-height="1027"
     inkscape:window-x="-8"
     inkscape:window-y="14"
     inkscape:window-maximized="1" />
  <metadata
     id="metadata5">
    <rdf:RDF>
      <cc:Work
         rdf:about="">
        <dc:format>image/svg+xml</dc:format>
        <dc:type
           rdf:resource="http://purl.org/dc/dcmitype/StillImage" />
        <dc:title></dc:title>
      </cc:Work>
    </rdf:RDF>
  </metadata>
  <g
     inkscape:groupmode="layer"
     id="layer4"
     inkscape:label="[export] mask"
     style="display:inline">
    <path
       id="path997"
       style="fill:#ffa306;fill-opacity:1;stroke:none;stroke-width:0.312746px;stroke-linecap:butt;stroke-linejoin:miter;stroke-opacity:1;filter:url(#filter1105)"
       d="m 3.0547489,8.5763426 c -0.169969,0.00355 -0.4850994,0.726421 -0.6734066,0.900371 -0.4349608,0.4018 -0.9702704,0.7546974 -0.8277471,0.8321154 0.2674068,0.145252 1.2909667,-0.4562454 1.9612159,-0.4448594 0.4687811,0.0079 1.2254533,-0.09156 1.3604048,0.3574434 0.2733014,0.909305 -1.1229962,1.514088 -1.8992563,2.122745 -0.6425507,0.503817 -1.3136816,1.301687 -1.2114989,2.104676 0.1255606,0.986693 1.5731934,1.280642 2.0888819,2.131168 0.454532,0.749661 0.3604714,1.750688 0.8140431,2.500929 0.5875342,0.971829 1.3359128,1.988762 2.3784463,2.439062 1.2385245,0.534954 2.7180736,0.303232 4.047034,0.07089 1.245363,-0.217736 2.455777,-0.706989 3.54484,-1.349085 0.570931,-0.33661 1.357603,-1.155357 1.602606,-1.221234 0.233134,-0.06271 1.355667,0.307728 2.035949,0.328634 1.26366,0.03883 2.560305,-0.114114 3.756786,-0.522491 1.276797,-0.435791 2.6853,-0.944594 3.513605,-2.009502 0.697228,-0.896391 1.069236,-1.797022 1.116653,-2.931658 0.03661,-0.875929 -0.447068,-1.844126 -0.409345,-2.720005 0.0428,-0.993728 0.686976,-1.2474954 0.322264,-2.1728677 C 26.279416,8.2395863 25.605396,7.9019336 24.799696,7.7694615 23.826335,7.6094231 22.15434,8.8011062 21.909782,7.8836518 21.67413,6.9998229 23.661596,6.218271 24.09061,6.0675914 24.86017,5.7973092 24.643589,4.8749851 24.686119,4.6834147 24.721272,4.5250755 24.42871,3.9468344 23.840467,4.014754 c -0.169745,0.019599 -0.05857,0.8890713 -0.568212,1.1913848 -1.402769,0.8321165 -1.555591,0.7973518 -2.291804,1.8346058 -0.671104,0.9455235 -0.494911,1.4484359 0.470227,2.141996 0.837232,0.601648 1.792304,-0.3119315 3.368421,-0.1286927 0.539218,0.062695 0.782184,0.5995937 0.398692,0.9938331 -1.421941,1.461791 -4.204625,1.492848 -6.097448,2.251778 -1.10338,0.442403 -2.251555,0.796108 -3.294358,1.366835 -0.229475,0.125589 -0.48209,0.297722 -0.758625,0.354059 -0.32789,0.0668 -0.698108,0.05966 -1.016252,0.06005 -1.188767,0.0014 -2.364734,0.244324 -3.544856,0.387433 -2.0244749,0.245501 -4.114708,1.40562 -6.0645997,0.808399 C 3.9157756,15.115362 3.2315188,14.722361 3.208948,14.17998 3.1753035,13.371536 4.0607697,12.929884 4.928132,12.341141 5.8755025,11.69809 6.3143826,10.366274 6.1297388,9.9716306 5.6010764,8.8417055 4.306184,8.549944 3.0547489,8.5763426 Z m 6.6054558,7.6706054 c 2.1116493,-0.503215 3.3898553,-0.06714 3.7031983,0.837565 0.235871,1.256511 -0.451245,2.128296 -2.722846,2.759571 C 8.3084456,20.217179 7.3985245,19.259287 7.2252395,18.542997 7.0516091,17.82681 8.334923,16.607889 9.6602047,16.246948 Z M 20.717388,13.452139 c 1.335445,-0.321298 3.047103,0.13032 3.239511,0.841691 0.192755,0.711297 -0.143381,1.988691 -2.367285,2.7838 -2.295089,0.539672 -3.317509,0.106229 -3.715352,-1.108757 -0.160646,-0.943864 0.749872,-1.941773 2.843126,-2.516734 z"
       sodipodi:nodetypes="ssssssssssssssssssssssssssssssssssssssscccccccccc" />
  </g>
</svg>
