<svg xmlns:dc="http://purl.org/dc/elements/1.1/" xmlns:cc="http://creativecommons.org/ns#" xmlns:rdf="http://www.w3.org/1999/02/22-rdf-syntax-ns#" xmlns:svg="http://www.w3.org/2000/svg" xmlns="http://www.w3.org/2000/svg" xmlns:sodipodi="http://sodipodi.sourceforge.net/DTD/sodipodi-0.dtd" xmlns:inkscape="http://www.inkscape.org/namespaces/inkscape" width="28.574999mm" height="28.574999mm" viewBox="0 0 28.574999 28.574999" version="1.1" id="svg8" inkscape:version="1.0.2-2 (e86c870879, 2021-01-15)" sodipodi:docname="icons.svg">
  <defs id="defs2"/>
  <sodipodi:namedview id="base" pagecolor="#ffffff" bordercolor="#666666" borderopacity="1.0" inkscape:pageopacity="0.0" inkscape:pageshadow="2" inkscape:zoom="5.6" inkscape:cx="49.591387" inkscape:cy="35.621739" inkscape:document-units="mm" inkscape:current-layer="g936" inkscape:document-rotation="0" showgrid="false" inkscape:window-width="1920" inkscape:window-height="1057" inkscape:window-x="1672" inkscape:window-y="-8" inkscape:window-maximized="1"/>
  <metadata id="metadata5">
    <rdf:RDF>
      <cc:Work rdf:about="">
        <dc:format>image/svg+xml</dc:format>
        <dc:type rdf:resource="http://purl.org/dc/dcmitype/StillImage"/>
        <dc:title/>
      </cc:Work>
    </rdf:RDF>
  </metadata>
  <g inkscape:groupmode="layer" id="layer4" inkscape:label="[export] mask" style="display:inline">
    <path id="path997" style="fill:unset;fill-opacity:1;stroke:none;stroke-width:0.264583px;stroke-linecap:butt;stroke-linejoin:miter;stroke-opacity:1" d="m 5.7971199,7.7089187 c -0.140041,-0.032777 -0.550173,0.4933635 -0.74104,0.596346 -0.440874,0.2378747 -0.953707,0.4145885 -0.853178,0.5079793 0.188616,0.1752214 1.153802,-0.1026237 1.700672,0.047542 0.382488,0.1050282 1.023486,0.1824627 1.03973,0.578776 0.0329,0.802594 -1.238431,1.00481 -2.002462,1.340487 -0.632428,0.277857 -1.350065,0.790682 -1.435055,1.470194 -0.104433,0.834968 1.020121,1.38004 1.264006,2.185396 0.214962,0.709848 -0.07246,1.510414 0.141593,2.220536 0.277273,0.919859 0.676879,1.910477 1.436605,2.498556 0.902551,0.698634 2.163717,0.81963 3.301607,0.908472 1.0663141,0.08325 2.1610401,-0.06335 3.1884361,-0.360702 0.538602,-0.155882 1.35531,-0.661537 1.56993,-0.664042 0.204228,-0.0024 1.046294,0.537039 1.599386,0.697115 1.027396,0.29735 2.122121,0.444468 3.188435,0.361218 1.137892,-0.08884 2.399057,-0.209837 3.301608,-0.908471 0.759726,-0.588078 1.253826,-1.247968 1.531099,-2.167827 0.214054,-0.710123 0.02113,-1.605182 0.236087,-2.31503 0.243884,-0.805355 0.825099,-0.877958 0.720665,-1.712926 -0.08499,-0.679512 -0.566393,-1.097843 -1.19882,-1.3757 -0.764031,-0.335677 -2.384616,0.289568 -2.392249,-0.513664 -0.0074,-0.773805 1.785531,-0.996663 2.168765,-1.029997 0.687439,-0.05979 0.703757,-0.8611339 0.778863,-1.0091873 0.06208,-0.1223704 -0.05617,-0.6577079 -0.5525,-0.7256526 -0.143223,-0.019606 -0.234818,0.7162764 -0.715983,0.8569322 -1.324404,0.3871541 -1.442335,0.3265531 -2.263606,1.0218757 -0.748641,0.633831 -0.709927,1.082985 -0.06474,1.85415 0.559682,0.668967 1.534319,0.120982 2.787427,0.602326 0.428711,0.164677 0.515003,0.655717 0.117896,0.89821 -1.472425,0.899138 -3.759331,0.339878 -5.46995,0.564085 -0.997168,0.130697 -2.012408,0.179295 -2.986898,0.427881 -0.214442,0.0547 -0.457626,0.142682 -0.696082,0.130742 -0.282738,-0.01416 -0.584628,-0.0978 -0.845426,-0.164331 C 12.677451,14.281621 11.662728,14.233541 10.66556,14.102844 8.9549379,13.878636 6.9982439,14.390132 5.5258189,13.490995 5.1287129,13.248501 4.6505509,12.782661 4.7460219,12.333443 4.8883249,11.663861 5.706757,11.487991 6.5412609,11.187776 7.4527421,10.859868 8.0922471,9.8606786 8.0238579,9.4984736 7.8280496,8.461427 6.8282049,7.950243 5.7971199,7.7089187 Z m 3.801319,7.6739503 c 1.8362131,0.03133 2.7920601,0.657268 2.8587401,1.46451 -0.07073,1.07926 -0.816998,1.649299 -2.8111981,1.689302 -1.989538,-0.184286 -2.533932,-1.160466 -2.525427,-1.78387 0.0082,-0.623391 1.315988,-1.352629 2.477885,-1.369942 z m 9.6485061,0.03307 c 1.161896,0.01731 2.469685,0.747068 2.477885,1.370459 0.0085,0.623403 -0.535372,1.599584 -2.52491,1.78387 -1.9942,-0.04 -2.740985,-0.610042 -2.811715,-1.689302 0.06668,-0.807243 1.022526,-1.433697 2.85874,-1.465027 z" sodipodi:nodetypes="ssssssssssssssssssssssssssssssssssssssscccccccccc"/>
  </g>
  </svg>