<svg xmlns:dc="http://purl.org/dc/elements/1.1/" xmlns:cc="http://creativecommons.org/ns#" xmlns:rdf="http://www.w3.org/1999/02/22-rdf-syntax-ns#" xmlns:svg="http://www.w3.org/2000/svg" xmlns="http://www.w3.org/2000/svg" xmlns:xlink="http://www.w3.org/1999/xlink" xmlns:sodipodi="http://sodipodi.sourceforge.net/DTD/sodipodi-0.dtd" xmlns:inkscape="http://www.inkscape.org/namespaces/inkscape" width="28.574999mm" height="28.574999mm" viewBox="0 0 28.574999 28.574999" version="1.1" id="svg8" inkscape:version="1.0.2-2 (e86c870879, 2021-01-15)" sodipodi:docname="icons.svg">
  <defs id="defs2"/>
  <sodipodi:namedview id="base" pagecolor="#ffffff" bordercolor="#666666" borderopacity="1.0" inkscape:pageopacity="0.0" inkscape:pageshadow="2" inkscape:zoom="7.9195959" inkscape:cx="37.539281" inkscape:cy="37.799789" inkscape:document-units="mm" inkscape:current-layer="layer19" inkscape:document-rotation="0" showgrid="false" inkscape:window-width="1920" inkscape:window-height="1057" inkscape:window-x="1672" inkscape:window-y="-8" inkscape:window-maximized="1"/>
  <metadata id="metadata5">
    <rdf:RDF>
      <cc:Work rdf:about="">
        <dc:format>image/svg+xml</dc:format>
        <dc:type rdf:resource="http://purl.org/dc/dcmitype/StillImage"/>
        <dc:title/>
      </cc:Work>
    </rdf:RDF>
  </metadata>
  <g inkscape:groupmode="layer" id="layer22" inkscape:label="[export] quicksilver" style="display:inline">
    <path id="path1712" style="fill:unset;fill-opacity:1;stroke:none;stroke-width:0.999999px;stroke-linecap:butt;stroke-linejoin:miter;stroke-opacity:1" d="m 61.900391,24.378906 c -0.220032,-0.0011 -0.451648,0.01195 -0.695313,0.04102 -0.37542,1.769609 -1.029238,3.393335 -1.382812,5.580078 -0.08929,0.624993 -0.514791,1.160993 -1.31836,0.982422 -0.803573,-0.178573 -2.343471,-0.447266 -3.236328,-0.447266 -0.892857,0 -1.160715,-0.535992 -3.125,-1.607422 -1.964288,-1.071428 -4.643135,0.179409 -7.232422,-0.177734 -2.589282,-0.357143 -6.49414,1.5625 -6.49414,1.5625 l -2.457032,3.169922 c 0,0 -0.868863,4.106866 -1.136718,4.642578 -0.609269,1.79706 -0.587386,3.27566 0,4.822266 l 1.070312,1.25 c 0,0 2.336626,-0.0576 3.271484,-0.642578 1.040244,-0.65093 1.075532,-2.252046 0.640626,-3.267579 0,0 -1.028675,-0.595089 -0.171876,-2.439453 C 40.227589,36.567331 41.785156,35 41.785156,35 c 0,0 1.329036,0.150424 2.439453,0.5 1.205356,0.379465 2.246094,0.933594 2.246094,0.933594 0,0 0.582031,3.476843 0.582031,6.333984 0,2.857142 -0.624151,3.03655 -0.802734,4.197266 -0.09737,0.632875 -0.370757,2.838688 -0.648438,4.910156 h 0.201172 l 5,-3.839844 -0.892578,-0.357422 4.464844,-3.035156 -0.892578,-0.535156 4.464844,-3.125 -1.072266,-0.625 6.160156,-3.214844 L 61.964844,36.25 65.814453,34.589844 c 0.100303,-0.56755 1.018252,-1.430873 1.216797,-2.357422 0.267859,-1.25 0.958984,-2.700613 0.958984,-3.236328 0,-0.535714 0.425487,-1.786272 0.06836,-2.589844 -0.613002,-0.777461 -2.597008,-1.167622 -2.992188,-0.826172 -0.648341,-0.506885 -1.625793,-1.193232 -3.166015,-1.201172 z m 13.367187,12.96875 c -0.805664,0.07115 -2.030692,0.532079 -2.566406,0.666016 -0.71427,0.178571 -0.938339,1.650685 -0.134766,2.007812 0.803581,0.357143 0.625,1.5625 0.625,1.5625 0,0 -0.780411,1.005583 -1.583984,1.273438 -0.803569,0.267855 -1.785156,1.695312 -1.785156,1.695312 0,0 -0.358959,-1.608516 -0.558594,-2.007812 -0.401787,-0.803573 -1.452029,-1.540456 -1.585938,-3.794922 -0.0016,-0.02763 -0.01488,-0.07745 -0.01758,-0.107422 L 64.642578,40.089844 64.910156,40.625 60,42.322266 60.892578,42.857422 56.25,46.072266 57.5,46.25 l -4.285156,2.589844 0.357422,0.357422 -5,2.320312 0.802734,0.535156 -3.994141,1.40625 C 45.230504,54.503195 45.091288,55.398378 45,55.714844 c -1.483661,5.143604 0,14.135324 0,14.849609 0,0.714289 -3.838447,1.846541 -5.177734,2.917969 -1.339284,1.071428 -4.10798,5.536274 -4.822266,6.339844 -0.714286,0.803573 -1.920763,0.342267 -3.214844,0.802734 -0.737776,0.262518 7.01e-4,2.387659 -0.07813,2.984375 -0.274615,2.078835 -0.959108,4.331557 -0.58789,5.115234 0.275509,0.581632 3.042663,2.096581 3.707031,1.804688 0.664365,-0.291904 0.310547,-2.350166 0.310547,-3.689453 0,-1.339283 0.09459,-3.068918 1.166015,-3.783203 1.071429,-0.714286 8.250001,-5.825055 9.5,-6.271485 1.25,-0.44643 3.840959,-2.589567 4.644532,-2.857422 0.803573,-0.267855 1.923828,-3.143413 1.923828,-3.589843 0,-0.446427 0.84375,-5.605469 0.84375,-5.605469 0,0 0.178293,-5.625 0.892578,-5.625 0.714285,0 3.100168,2.66045 3.814453,3.017578 0.714285,0.357143 6.274834,2.785714 4.935547,2.25 -1.339287,-0.535714 -3.487748,0.23601 -5.179688,0.892578 -1.30289,0.505588 -3.376674,0.374152 -4.269531,0.552734 -0.892834,0.178576 -0.193359,1.769809 -0.193359,2.751954 0,0.98214 -0.892855,2.766741 -0.625,4.195312 0.267859,1.428571 1.963726,2.856864 2.410156,3.392578 0.44643,0.535718 0.982145,-2.588449 1.25,-3.302734 0.267859,-0.714289 -2.79e-4,-3.035996 0.892578,-3.482422 0.892857,-0.446415 4.642577,0.356317 6.517578,0.177734 1.874997,-0.178567 5.268135,-1.784877 6.607422,-2.677734 1.339283,-0.892857 -0.267856,-5.713729 -2.5,-9.285156 -2.232143,-3.571431 -8.303572,-5.983256 -9.375,-7.054688 -1.071428,-1.071424 -0.17885,-1.070032 0.892578,-2.58789 1.071428,-1.517859 1.696427,-1.071707 2.5,-2.232422 0.803573,-1.160716 1.072264,-1.607422 1.697266,-1.607422 0.624998,0 1.159597,1.875277 2.320312,2.857422 1.160716,0.982144 0.973214,0.867819 2.144532,2.43164 1.171317,1.563821 4.320378,0.0089 5.021484,-1.25 1.170229,-2.463802 2.313382,-4.645143 4.017578,-7.230468 0.21196,-1.332186 0.251679,-1.847783 -1.09375,-3.482422 -0.133928,-0.08929 -0.356445,-0.109654 -0.625,-0.08594 z" transform="scale(0.26458333)"/>
  </g>
  </svg>