<svg xmlns:dc="http://purl.org/dc/elements/1.1/" xmlns:cc="http://creativecommons.org/ns#" xmlns:rdf="http://www.w3.org/1999/02/22-rdf-syntax-ns#" xmlns:svg="http://www.w3.org/2000/svg" xmlns="http://www.w3.org/2000/svg" xmlns:xlink="http://www.w3.org/1999/xlink" xmlns:sodipodi="http://sodipodi.sourceforge.net/DTD/sodipodi-0.dtd" xmlns:inkscape="http://www.inkscape.org/namespaces/inkscape" width="28.574999mm" height="28.574999mm" viewBox="0 0 28.574999 28.574999" version="1.1" id="svg8" inkscape:version="1.0.2-2 (e86c870879, 2021-01-15)" sodipodi:docname="icons.svg">
  <defs id="defs2"/>
  <sodipodi:namedview id="base" pagecolor="#ffffff" bordercolor="#666666" borderopacity="1.0" inkscape:pageopacity="0.0" inkscape:pageshadow="2" inkscape:zoom="7.9195959" inkscape:cx="37.539281" inkscape:cy="37.799789" inkscape:document-units="mm" inkscape:current-layer="layer19" inkscape:document-rotation="0" showgrid="false" inkscape:window-width="1920" inkscape:window-height="1057" inkscape:window-x="1672" inkscape:window-y="-8" inkscape:window-maximized="1"/>
  <metadata id="metadata5">
    <rdf:RDF>
      <cc:Work rdf:about="">
        <dc:format>image/svg+xml</dc:format>
        <dc:type rdf:resource="http://purl.org/dc/dcmitype/StillImage"/>
        <dc:title/>
      </cc:Work>
    </rdf:RDF>
  </metadata>
  <g inkscape:groupmode="layer" id="layer14" inkscape:label="[export] angel" style="display:inline">
    <path style="color:#000000;font-style:normal;font-variant:normal;font-weight:normal;font-stretch:normal;font-size:medium;line-height:normal;font-family:sans-serif;font-variant-ligatures:normal;font-variant-position:normal;font-variant-caps:normal;font-variant-numeric:normal;font-variant-alternates:normal;font-variant-east-asian:normal;font-feature-settings:normal;font-variation-settings:normal;text-indent:0;text-align:start;text-decoration:none;text-decoration-line:none;text-decoration-style:solid;text-decoration-color:#000000;letter-spacing:normal;word-spacing:normal;text-transform:none;writing-mode:lr-tb;direction:ltr;text-orientation:mixed;dominant-baseline:auto;baseline-shift:baseline;text-anchor:start;white-space:normal;shape-padding:0;shape-margin:0;inline-size:0;clip-rule:nonzero;display:inline;overflow:visible;visibility:visible;isolation:auto;mix-blend-mode:normal;color-interpolation:sRGB;color-interpolation-filters:linearRGB;solid-color:#000000;solid-opacity:1;vector-effect:none;fill:unset;fill-opacity:1;fill-rule:nonzero;stroke:none;stroke-width:0.999005;stroke-linecap:butt;stroke-linejoin:miter;stroke-miterlimit:4;stroke-dasharray:none;stroke-dashoffset:0;stroke-opacity:1;color-rendering:auto;image-rendering:auto;shape-rendering:auto;text-rendering:auto;enable-background:accumulate;stop-color:#000000" d="m 13.800774,11.623676 c -2.729506,0.500884 -5.1648341,1.35024 -6.9588148,2.164823 -0.8969908,0.407291 -1.6338163,0.827453 -2.1964917,1.306749 -0.5626753,0.479297 -1.0629595,1.116265 -0.9683547,1.913712 0.094605,0.797447 0.7217133,1.229511 1.3717107,1.486273 0.6499975,0.256764 1.4529919,0.394356 2.4063381,0.462097 1.9066914,0.135483 4.5085484,0.195803 7.2380544,-0.305081 2.729506,-0.500884 4.948411,-1.254912 6.742393,-2.069495 0.896991,-0.407291 1.751933,-1.040064 2.31461,-1.519361 0.562675,-0.479296 1.062729,-1.118203 0.968124,-1.91565 -0.0946,-0.797447 -0.721483,-1.227572 -1.37148,-1.484336 -0.649999,-0.256761 -1.452992,-0.394355 -2.406339,-0.462096 -1.906692,-0.135483 -4.410244,-0.07852 -7.13975,0.422365 z m 0.403396,1.927816 c 2.613063,-0.479516 4.812979,-0.73785 6.514067,-0.616977 0.850544,0.06044 1.227682,0.09314 1.644527,0.196881 0.408862,0.101759 0.647282,0.151943 0.661216,0.327275 0.0092,0.115678 -0.168079,0.34972 -0.551474,0.57864 -0.390069,0.232903 -0.734033,0.388017 -1.534298,0.75139 -1.600531,0.726743 -3.935098,1.289172 -6.548161,1.768687 C 11.776984,17.036904 8.9679872,17.192417 7.6752979,17.22254 6.3826085,17.25266 5.1017026,17.20263 4.9956285,16.819138 4.8895526,16.435647 6.8271241,15.575862 7.7058927,15.284833 9.4567634,14.708429 11.591107,14.031008 14.20417,13.551492 Z" id="path893" sodipodi:nodetypes="sssssssssssssssssssszzcs"/>
  </g>
  </svg>