<svg xmlns:dc="http://purl.org/dc/elements/1.1/" xmlns:cc="http://creativecommons.org/ns#" xmlns:rdf="http://www.w3.org/1999/02/22-rdf-syntax-ns#" xmlns:svg="http://www.w3.org/2000/svg" xmlns="http://www.w3.org/2000/svg" xmlns:xlink="http://www.w3.org/1999/xlink" xmlns:sodipodi="http://sodipodi.sourceforge.net/DTD/sodipodi-0.dtd" xmlns:inkscape="http://www.inkscape.org/namespaces/inkscape" width="28.574999mm" height="28.574999mm" viewBox="0 0 28.574999 28.574999" version="1.1" id="svg8" inkscape:version="1.0.2-2 (e86c870879, 2021-01-15)" sodipodi:docname="icons.svg">
  <defs id="defs2"/>
  <sodipodi:namedview id="base" pagecolor="#ffffff" bordercolor="#666666" borderopacity="1.0" inkscape:pageopacity="0.0" inkscape:pageshadow="2" inkscape:zoom="7.9195959" inkscape:cx="37.539281" inkscape:cy="37.799789" inkscape:document-units="mm" inkscape:current-layer="layer19" inkscape:document-rotation="0" showgrid="false" inkscape:window-width="1920" inkscape:window-height="1057" inkscape:window-x="1672" inkscape:window-y="-8" inkscape:window-maximized="1"/>
  <metadata id="metadata5">
    <rdf:RDF>
      <cc:Work rdf:about="">
        <dc:format>image/svg+xml</dc:format>
        <dc:type rdf:resource="http://purl.org/dc/dcmitype/StillImage"/>
        <dc:title/>
      </cc:Work>
    </rdf:RDF>
  </metadata>
  <g inkscape:groupmode="layer" id="layer16" inkscape:label="[export] iceman" style="display:inline">
    <path id="path979" style="color:#000000;font-style:normal;font-variant:normal;font-weight:normal;font-stretch:normal;font-size:medium;line-height:normal;font-family:sans-serif;font-variant-ligatures:normal;font-variant-position:normal;font-variant-caps:normal;font-variant-numeric:normal;font-variant-alternates:normal;font-variant-east-asian:normal;font-feature-settings:normal;font-variation-settings:normal;text-indent:0;text-align:start;text-decoration:none;text-decoration-line:none;text-decoration-style:solid;text-decoration-color:#000000;letter-spacing:normal;word-spacing:normal;text-transform:none;writing-mode:lr-tb;direction:ltr;text-orientation:mixed;dominant-baseline:auto;baseline-shift:baseline;text-anchor:start;white-space:normal;shape-padding:0;shape-margin:0;inline-size:0;clip-rule:nonzero;display:inline;overflow:visible;visibility:visible;opacity:1;isolation:auto;mix-blend-mode:normal;color-interpolation:sRGB;color-interpolation-filters:linearRGB;solid-color:#000000;solid-opacity:1;vector-effect:none;fill:unset;fill-opacity:1;fill-rule:nonzero;stroke:none;stroke-width:1;stroke-linecap:butt;stroke-linejoin:miter;stroke-miterlimit:4;stroke-dasharray:none;stroke-dashoffset:0;stroke-opacity:1;color-rendering:auto;image-rendering:auto;shape-rendering:auto;text-rendering:auto;enable-background:accumulate;stop-color:#000000;stop-opacity:1" inkscape:transform-center-x="-0.0014330064" inkscape:transform-center-y="-4.3515574" d="m 12.037992,5.5795121 -0.906405,0.8847005 2.492354,2.5512654 0.01085,2.646867 -1.148251,-0.840776 -0.0047,0.34985 -0.31626,-0.176733 0.158647,1.453658 -2.243274,-1.28261 L 9.0919187,7.6398516 7.8733883,7.9809159 8.5172767,10.271732 7.2000444,9.5182898 6.5732095,10.61538 l 1.2386839,0.708485 -2.190564,0.557588 0.3131592,1.227315 3.4556026,-0.882633 2.2975348,1.314132 -1.302246,0.574125 0.300239,0.179317 -0.310575,0.185002 1.33842,0.590145 -2.2324218,1.300695 -3.5481038,-0.906404 -0.3141927,1.225764 2.3058022,0.588078 -1.311031,0.763778 0.6366536,1.091406 1.2329999,-0.718302 -0.611849,2.175578 1.2190468,0.342614 0.9632488,-3.433899 2.286682,-1.332735 -0.153996,1.414901 0.305408,-0.170532 0.0052,0.361735 1.179773,-0.86403 0.01085,2.583821 -2.559017,2.619479 0.904338,0.8847 1.661914,-1.702738 0.0062,1.51722 1.263489,-0.0057 -0.0057,-1.426787 1.578198,1.617473 0.906405,-0.884701 -2.492355,-2.551265 -0.01085,-2.646867 1.148767,0.841292 0.0047,-0.349849 0.315743,0.176216 -0.158647,-1.454175 2.243791,1.283126 0.98857,3.525883 1.218531,-0.341064 -0.643372,-2.2903 1.316715,0.752926 0.626836,-1.097091 -1.238168,-0.707967 2.190047,-0.558105 -0.313159,-1.227315 -3.455603,0.882633 -2.297534,-1.313615 1.302246,-0.574125 -0.30024,-0.179317 0.310576,-0.185002 -1.337903,-0.589628 2.231905,-1.301729 3.548103,0.906404 0.314193,-1.225248 -2.305802,-0.588078 1.311031,-0.763778 -0.636654,-1.0914057 -1.232999,0.7183027 0.612365,-2.176095 -1.219563,-0.3426148 -0.963249,3.4344158 -2.286682,1.332218 0.153996,-1.414383 -0.305408,0.170532 -0.0052,-0.361735 -1.179773,0.86403 -0.01085,-2.583822 2.559017,-2.6194784 -0.904337,-0.8847005 -1.661914,1.7027384 -0.0062,-1.51722 -1.263488,0.00568 0.0057,1.4267862 z"/>
  </g>
  </svg>