<svg xmlns:dc="http://purl.org/dc/elements/1.1/" xmlns:cc="http://creativecommons.org/ns#" xmlns:rdf="http://www.w3.org/1999/02/22-rdf-syntax-ns#" xmlns:svg="http://www.w3.org/2000/svg" xmlns="http://www.w3.org/2000/svg" xmlns:xlink="http://www.w3.org/1999/xlink" xmlns:sodipodi="http://sodipodi.sourceforge.net/DTD/sodipodi-0.dtd" xmlns:inkscape="http://www.inkscape.org/namespaces/inkscape" width="28.574999mm" height="28.574999mm" viewBox="0 0 28.574999 28.574999" version="1.1" id="svg8" inkscape:version="1.0.2-2 (e86c870879, 2021-01-15)" sodipodi:docname="icons.svg">
  <defs id="defs2"/>
  <sodipodi:namedview id="base" pagecolor="#ffffff" bordercolor="#666666" borderopacity="1.0" inkscape:pageopacity="0.0" inkscape:pageshadow="2" inkscape:zoom="7.9195959" inkscape:cx="37.539281" inkscape:cy="37.799789" inkscape:document-units="mm" inkscape:current-layer="layer19" inkscape:document-rotation="0" showgrid="false" inkscape:window-width="1920" inkscape:window-height="1057" inkscape:window-x="1672" inkscape:window-y="-8" inkscape:window-maximized="1"/>
  <metadata id="metadata5">
    <rdf:RDF>
      <cc:Work rdf:about="">
        <dc:format>image/svg+xml</dc:format>
        <dc:type rdf:resource="http://purl.org/dc/dcmitype/StillImage"/>
        <dc:title/>
      </cc:Work>
    </rdf:RDF>
  </metadata>
  <g inkscape:groupmode="layer" id="layer19" inkscape:label="[export] magneto" style="display:inline">
    <path id="path1347" style="color:#000000;font-style:normal;font-variant:normal;font-weight:normal;font-stretch:normal;font-size:medium;line-height:normal;font-family:sans-serif;font-variant-ligatures:normal;font-variant-position:normal;font-variant-caps:normal;font-variant-numeric:normal;font-variant-alternates:normal;font-variant-east-asian:normal;font-feature-settings:normal;font-variation-settings:normal;text-indent:0;text-align:start;text-decoration:none;text-decoration-line:none;text-decoration-style:solid;text-decoration-color:#000000;letter-spacing:normal;word-spacing:normal;text-transform:none;writing-mode:lr-tb;direction:ltr;text-orientation:mixed;dominant-baseline:auto;baseline-shift:baseline;text-anchor:start;white-space:normal;shape-padding:0;shape-margin:0;inline-size:0;clip-rule:nonzero;display:inline;overflow:visible;visibility:visible;opacity:1;isolation:auto;mix-blend-mode:normal;color-interpolation:sRGB;color-interpolation-filters:linearRGB;solid-color:#000000;solid-opacity:1;vector-effect:none;fill:unset;fill-opacity:1;fill-rule:nonzero;stroke:none;stroke-linecap:butt;stroke-linejoin:miter;stroke-miterlimit:4.5;stroke-dasharray:none;stroke-dashoffset:0;stroke-opacity:1;color-rendering:auto;image-rendering:auto;shape-rendering:auto;text-rendering:auto;enable-background:accumulate;stop-color:#000000;stop-opacity:1" d="m 54.060547,12.996094 c -16.503381,0.252589 -25.275716,13.194827 -24.640625,35.492187 0.252537,8.20749 0.297044,9.261983 0.58789,14.384766 0.0051,0.09038 0.02281,0.234941 0.0293,0.333984 -0.48517,0.250852 -1.047341,0.537739 -1.490234,1.070313 -0.443324,0.533092 -0.691982,1.309637 -0.601563,2.263672 0.430062,4.537595 3.203741,11.898134 6.619141,16.451172 1.692983,2.2569 3.758468,4.322917 5.605469,5.886718 0.9235,0.781901 1.792582,1.436701 2.541016,1.929688 0.748432,0.492987 1.340177,0.828209 1.894531,0.966797 0.820892,0.205223 1.771959,0.332391 2.636719,0.21875 0.432378,-0.05682 0.853362,-0.171875 1.222656,-0.431641 0.369294,-0.259766 0.658764,-0.708742 0.708984,-1.210938 0.02387,-0.238686 0.03761,-0.662595 0.05664,-1.349609 0.01903,-0.687014 0.0399,-1.596624 0.06055,-2.654297 0.0413,-2.115345 0.08381,-4.822937 0.123046,-7.511718 0.07847,-5.377566 0.140629,-10.604462 0.140626,-11.029297 -1.2e-5,-0.958389 -0.02344,-2.458985 -0.02344,-2.458985 l -0.01953,-1.30664 -1.06836,0.755859 c -0.751213,0.531092 -1.498352,0.774269 -2.203125,0.716797 -0.704773,-0.05747 -1.420491,-0.403434 -2.15625,-1.263672 -0.819823,-0.958475 -2.087527,-2.475548 -3.230468,-3.988281 -1.142942,-1.512733 -2.163911,-3.075353 -2.449219,-3.873047 -0.316736,-0.885565 -0.686179,-2.481875 -0.5,-3.515625 0.09309,-0.516875 0.278082,-0.848676 0.607422,-1.052735 0.329339,-0.204057 0.910014,-0.326015 1.93164,-0.105468 4.142198,0.89421 9.591247,5.817574 13.441407,9.988281 l 0.529296,0.574219 0.503907,-0.595703 c 1.70734,-2.01717 3.867109,-4.417437 6.195312,-6.351563 2.326853,-1.933004 4.818648,-3.37128 7.107422,-3.585937 0.642269,-0.04977 1.012556,0.09323 1.292969,0.332031 0.281707,0.239903 0.490471,0.623744 0.611328,1.121094 0.241713,0.994699 0.07058,2.385199 -0.222656,3.205078 -0.285333,0.797762 -1.306274,2.361779 -2.449219,3.875 -1.142945,1.513221 -2.41072,3.029893 -3.230469,3.988281 -0.727607,0.850708 -1.470612,1.188131 -2.199218,1.240234 -0.728608,0.0521 -1.4783,-0.198855 -2.15625,-0.689453 l -1.074219,-0.777344 -0.01953,1.324219 c 0,0 -0.02343,1.498642 -0.02344,2.457031 -4e-6,0.425486 0.06362,5.651732 0.142578,11.029297 0.03948,2.688783 0.08156,5.396376 0.123047,7.511719 0.02074,1.057672 0.04146,1.967287 0.06055,2.654297 0.01909,0.68701 0.03278,1.11101 0.05664,1.349609 0.05022,0.502195 0.339691,0.951172 0.708985,1.210938 0.369294,0.259765 0.790277,0.374821 1.222656,0.43164 0.864759,0.113642 1.815826,-0.01353 2.636719,-0.21875 0.554218,-0.138553 1.146098,-0.474 1.894531,-0.966796 0.748434,-0.492797 1.617505,-1.148027 2.541016,-1.929688 1.847021,-1.563321 3.912456,-3.627825 5.605469,-5.884766 3.415479,-4.553141 6.187142,-11.913783 6.617187,-16.451171 0.09968,-1.051756 -0.366004,-1.884989 -0.755859,-2.492188 -0.23269,-0.29424 -0.687489,-0.706417 -1.490235,-1.1875 6e-5,-10e-4 -5.9e-5,-0.0029 0,-0.0039 C 78.404145,57.75027 78.44863,56.695777 78.701178,48.488287 80.229122,29.762349 70.563928,12.743505 54.060547,12.996094 Z M 35.853516,42.769531 c 0,0 4.451099,0.847798 12.740234,6.126953 3.600286,2.292937 3.639905,3.133686 5.388672,5.083985 v 0.183593 c 0.03249,-0.03519 0.04677,-0.05733 0.07813,-0.0918 0.03136,0.03447 0.04564,0.05661 0.07813,0.0918 v -0.183593 c 1.748766,-1.950301 1.788387,-2.791049 5.388672,-5.083985 8.289139,-5.279157 12.740234,-6.126953 12.740234,-6.126953 0,0 -3.71779,2.794622 0.773438,4.414063 1.631886,0.588423 3.47923,3.424213 3.195312,7.517578 -0.165449,2.385411 0.541016,2.730469 0.541016,2.730469 0,0 -2.058529,1.404502 -3.353516,4.318359 -0.233715,0.525883 0.853516,1.181641 0.853516,1.181641 0,0 -8.183377,2.304219 -3.876953,2.361328 1.487886,0.01973 -7.741582,3.176319 -8.06836,4.507812 -0.808199,3.293299 0.182671,2.384631 2.472657,2.339844 2.289981,-0.0448 5.21875,-0.917969 5.21875,-0.917969 0,0 -4.017958,1.98149 -6.990235,4.78125 -0.494955,0.466235 -0.554008,7.678715 -0.427734,8.941406 0.12627,1.262695 -0.599212,3.587792 0.916015,3.208985 1.515232,-0.378807 4.010405,-2.292365 7.208985,-6.775391 2.874913,-4.029384 5.564008,-9.368617 6.856024,-14.460937 0.261508,-1.030728 0.295719,-1.482689 0.379464,-2.310547 0.162963,-0.01171 0.396078,-0.0096 0.532645,0.203125 0.349233,0.543929 0.596673,1.029939 0.541016,1.617187 -0.388851,4.102748 -3.209052,11.494268 -6.402899,15.751954 -1.611648,2.148472 -3.616448,4.156837 -5.392578,5.660156 -0.888066,0.751659 -1.718437,1.377196 -2.40625,1.830078 -0.687814,0.452882 -1.269259,0.728448 -1.472657,0.779297 -0.694335,0.173584 -1.538805,0.267927 -2.121093,0.191406 -0.291144,-0.03826 -0.505099,-0.121384 -0.607422,-0.193359 -0.102323,-0.07198 -0.119898,-0.0896 -0.132813,-0.21875 -0.0077,-0.07707 -0.02993,-0.571673 -0.04883,-1.251954 -0.0189,-0.680279 -0.03789,-1.587006 -0.05859,-2.642578 -0.0414,-2.111143 -0.08554,-4.816381 -0.125,-7.503906 -0.07892,-5.375049 -0.14258,-10.755272 -0.142578,-11.009766 6e-6,-0.511381 0.0073,-0.818872 0.01367,-1.330078 0.627993,0.26361 1.286348,0.442215 1.980469,0.392578 1.108447,-0.07926 2.223829,-0.639994 3.146484,-1.71875 0.830605,-0.971078 2.114027,-2.506104 3.285157,-4.05664 1.171128,-1.550536 2.227142,-3.062337 2.648437,-4.240234 0.388469,-1.086127 0.599493,-2.612168 0.263672,-3.994141 C 71.298886,52.18206 70.977565,51.512216 70.408203,51.027344 69.838841,50.542472 69.03605,50.29274 68.105469,50.367188 h -0.0039 -0.0059 c -2.754097,0.256612 -5.426904,1.8764 -7.863281,3.90039 -2.241469,1.862072 -4.198572,4.066978 -5.857422,6.001953 -3.866991,-4.131483 -8.95513,-8.890849 -13.640625,-9.902343 -0.616381,-0.133064 -1.17214,-0.17581 -1.664063,-0.128907 -0.491921,0.0469 -0.919482,0.183585 -1.285156,0.410157 -0.731348,0.453141 -1.103077,1.218906 -1.240234,1.980468 -0.274315,1.523124 0.193618,3.20417 0.558594,4.22461 0.421318,1.177966 1.479256,2.690187 2.65039,4.240234 1.171134,1.550047 2.452673,3.083695 3.283203,4.054688 0.914505,1.069224 1.992059,1.650554 3.091797,1.740234 0.703957,0.05741 1.379536,-0.131651 2.033203,-0.414063 0.0063,0.511856 0.01367,0.820308 0.01367,1.332032 3e-6,0.255142 -0.06219,5.634717 -0.140625,11.009765 -0.03922,2.687524 -0.08378,5.392766 -0.125,7.503906 -0.02061,1.055571 -0.03975,1.962302 -0.05859,2.642579 -0.01884,0.680276 -0.04113,1.174967 -0.04883,1.251953 -0.01291,0.12915 -0.03049,0.146775 -0.132812,0.21875 -0.102323,0.07197 -0.316278,0.155099 -0.607422,0.193359 -0.582288,0.07652 -1.426759,-0.01782 -2.121094,-0.191406 -0.203262,-0.05082 -0.784842,-0.32624 -1.472656,-0.779297 -0.687814,-0.453057 -1.518174,-1.07817 -2.40625,-1.830078 -1.776151,-1.503815 -3.780901,-3.513597 -5.392578,-5.66211 -3.193924,-4.257789 -5.960781,-11.64941 -6.34961,-15.751953 -0.06492,-0.684968 0.06929,-0.990024 0.28711,-1.251953 0.131645,-0.158301 0.335129,-0.302827 0.568359,-0.445312 0.08801,0.677462 0.216693,1.425217 0.414063,2.203125 1.292017,5.09232 3.925869,10.431554 6.800781,14.460937 3.198581,4.483027 5.693752,6.396584 7.208984,6.775391 1.515227,0.378807 0.789746,-1.946292 0.916016,-3.208985 0.126274,-1.26269 0.06723,-8.475168 -0.427734,-8.941406 -2.972276,-2.799761 -6.990235,-4.78125 -6.990235,-4.78125 0,0 2.928766,0.873168 5.21875,0.917969 2.289985,0.0448 3.280855,0.953455 2.472656,-2.339844 -0.326757,-1.331495 -9.556244,-4.48808 -8.068359,-4.507812 4.306423,-0.05711 -3.876953,-2.361328 -3.876953,-2.361328 0,0 1.087231,-0.655758 0.853516,-1.181641 -1.294987,-2.913857 -3.353516,-4.318359 -3.353516,-4.318359 0,0 0.706466,-0.345053 0.541016,-2.730469 -0.283913,-4.093365 1.563428,-6.929155 3.195312,-7.517578 4.491228,-1.61944 0.773438,-4.414063 0.773438,-4.414063 z" transform="scale(0.26458333)" sodipodi:nodetypes="zcscssssssssssssscccscssssscccscsssscssccsssssssssssscccczcscccccscsscscscscssssscssssssssssssscscsssscccscsssssscscssssssssssssscssssscssscscsscc"/>
  </g>
  </svg>